<svg version="1.2" xmlns="http://www.w3.org/2000/svg" viewBox="0 0 256 256" width="256" height="256">
	<title>Novo Projeto</title>
	<style>
		.s0 { fill: #000000 } 
		.s1 { fill: #ffffff } 
	</style>
	<path id="Camada 1" class="s0" d="m0 45c0-24.9 20.1-45 45-45h166c24.9 0 45 20.1 45 45v166c0 24.9-20.1 45-45 45h-166c-24.9 0-45-20.1-45-45z"/>
	<g id="Layer">
		<path id="Layer" class="s1" d="m63.8 45.4c0.8 1.2 1.4 2.5 2.3 3.7 8.4 11.2 16.7 22.4 25.1 33.6 8 10.6 16.1 21.2 24.1 31.7 0.6 0.7 1.1 1.4 1.7 2.2-1.2 1-2.2 1.9-3.4 2.9-17.1-8.3-31.1-20.3-41.6-35.9-4.5-6.7-8.5-13.7-10.6-21.5-1.8-6.5-1.9-12.9-0.7-19.5 0.1-1 0.5-1.3 1.6-1.2 10.4 1.4 19.3 5.6 26.9 12.4q23.3 20.8 31.3 50.3c0.8 3.1 1.3 6.3 1.9 9.5-0.2 0.2-0.3 0.3-0.4 0.3-1.2 0.5-2.5 1.6-3.5 1.3-1-0.2-1.6-1.8-2.4-2.8-14.3-18.8-28.6-37.7-43-56.5-2.4-3.2-5-6.2-7.5-9.3-0.5-0.5-0.9-0.9-1.4-1.4q-0.2 0.1-0.4 0.2z"/>
		<path id="Layer" class="s1" d="m137.4 115.3c-1.4-0.6-3.2-1-3.7-1.9-0.5-1 0.1-2.6 0.4-3.9 4.1-19.9 13.6-37.1 28.3-51.8 6-5.9 12.6-11.1 20.9-13.8 3.3-1.1 6.8-1.6 10.1-2.5 1.2-0.2 1.5 0.2 1.7 1.2 1.7 9.7 0.5 19-3.8 27.9q-13.7 28.2-41.2 44.8c-2.4 1.4-4.8 2.6-7.2 3.8-0.3 0.1-0.9 0-1.2-0.2-0.9-0.7-1.7-1.6-2.8-2.5 9-11.8 18-23.5 26.8-35.3 8.9-11.8 18.3-23.3 26.3-35.6q-0.2-0.2-0.4-0.3c-0.5 0.5-1.1 1-1.6 1.6-6 7.7-12.1 15.4-18.1 23.1-11.2 14.7-22.3 29.4-33.5 44.1-0.3 0.4-0.6 0.8-1 1.3z"/>
		<path id="Layer" class="s1" d="m127.2 146.8c0 14.5-0.1 29.1 0 43.6 0.1 14.5-0.5 29 0.6 43.5q0.3 0 0.6 0c0.2-2.4 0.5-4.9 0.5-7.3 0.1-20.2 0.1-40.4 0.1-60.5q0.1-8.9 0-17.8c0-0.5 0-1 0-1.4 0.3-0.2 0.4-0.2 0.5-0.3 1.3-0.1 3-0.8 4-0.3 1 0.6 1.4 2.2 1.9 3.5 9.1 18.8 11.9 38.4 8.6 58.9-1.3 8.6-4 16.7-9.7 23.7-1.8 2.2-3.9 4.3-6.2 6.9-2.6-3-5.1-5.6-7.3-8.5-5-6.6-7.3-14.2-8.6-22.2-3-18.7-0.7-36.8 6.5-54.4 1.1-2.6 2.4-5.1 3.7-7.5 0.2-0.3 0.8-0.6 1.1-0.6 1.2 0.2 2.3 0.4 3.7 0.7z"/>
		<path id="Layer" class="s1" d="m113.8 139.9c-3 2.6-6 5.2-9.2 7.6-10.5 7.9-22.1 13.9-34.9 17.6-9.1 2.6-18.2 4.6-27.8 4.3-7.7-0.2-15-2.3-22.1-6.2 1.6-2.5 3-5 4.6-7.4 4.9-6.9 11.6-11.8 19.3-15.6 18.5-9.2 38.1-13 58.9-11.4 2.6 0.1 5.1 0.6 7.7 0.9 0.2 1.3 0.5 2.5 0.5 3.7 0 0.3-0.6 0.9-1 1-13.4 4.2-26.7 8.3-40.1 12.5-13.6 4.3-27.2 8.7-40.8 13-1.4 0.5-2.7 1.1-4.1 1.7q0.1 0.2 0.1 0.4c1.2-0.2 2.4-0.4 3.5-0.8 12.7-3.8 25.5-7.6 38.2-11.4 14.4-4.5 28.8-9 43.2-13.5 1.3-0.4 1.9-0.3 2.4 0.9 0.5 0.9 1 1.7 1.6 2.7z"/>
		<path id="Layer" class="s1" d="m145.3 134.1c0.1-0.7 0.2-1.4 0.3-2 0.4-2.5 0.4-2.5 3-2.8 16.5-2.1 32.6-0.5 48.4 4.7 8.2 2.7 16.2 6.1 23.3 11 6.9 4.7 11.9 10.8 15.5 18.3-1.7 0.9-3.4 1.7-5.2 2.5-9 3.7-18.4 4.4-28.1 2.9-11.5-1.8-22.5-4.9-32.9-10-9.5-4.6-18.3-10.2-25.8-17.5-0.2-0.2-0.5-0.4-0.8-0.6-0.2-0.1-0.5-0.3-0.7-0.5 0.7-1.2 1.2-2.4 2-3.4 0.2-0.3 1.2-0.5 1.7-0.3 4.5 1.3 9.1 2.8 13.6 4.2q30.5 9.4 61 18.8c2.7 0.8 5.5 1.5 8.2 2.2 0.7 0.2 1.4 0.2 2 0.4q0.1-0.2 0.2-0.4c-0.7-0.3-1.4-0.7-2.1-0.9-10.6-3.5-21.2-7-31.8-10.3-16.5-5.2-33-10.3-49.5-15.5-0.8-0.2-1.5-0.5-2.3-0.8z"/>
		<path id="Layer" fill-rule="evenodd" class="s1" d="m79.6 217.6c-0.6 0.4-1 0.8-1.5 1.2-5.5 4-11.5 4.9-18 2.8-0.8-0.2-1.7-0.8-2.2-1.5q-6-7.9-2.7-17.1c0.2-0.6 0.5-1.1 0.8-1.8-0.6-0.2-1.2-0.3-1.7-0.5-7.5-1.9-12.5-6.4-15.3-13.3-0.4-1.2 0.1-1.7 1.1-2.2 6.3-3.6 13.2-4.8 20.5-3.7 0.8 0.2 1.7 0.3 2.8 0.4 0.1-1.1 0.3-2.1 0.4-3 0.8-4 3-7.3 5.7-10.3 1.1-1.2 2.1-1.3 3.6-0.5 7.1 4.1 11.4 9.9 12.3 18 0.8-0.1 1.6-0.2 2.4-0.3 7.8-1 14.3 1.5 20 6.6 1 0.9 0.5 1.8 0 2.6-2.3 3.9-5.3 7.2-9.7 9.1q-0.6 0.3-1.2 0.6c-0.1 0-0.1 0.1-0.4 0.3 0.4 0.8 0.8 1.6 1.2 2.4 3.2 6 4.2 12.3 2.9 18.9-0.5 2.4-0.7 2.5-3.2 2.3q-11.2-0.9-17.1-10.1c-0.2-0.2-0.4-0.5-0.7-0.9zm16.9 8.3q0.1-0.2 0.2-0.4c0 0-0.1-0.1-0.1-0.1q-0.6-0.5-1.3-1c-8.1-6.4-12-14.6-11-24.8 0.1-1.5 0.6-1.7 2-1.5 6.1 0.9 11.8 0.1 16.9-3.4 0.5-0.3 0.8-0.6 1.3-1-8.3 3.9-16.7 5.4-24.7-0.1-8-5.5-9-13.7-7.6-22.4q-0.6 0.7-0.8 1.4c-1.9 5.7-0.9 11.1 1.8 16.3 0.7 1.3 0.6 1.9-0.9 2.5-9.9 4-19.2 2.9-28.1-2.5q-0.7-0.4-1.4-0.9c2 2.5 4.6 4.2 7.6 5.3 7.7 2.9 15.3 2.7 22.9-0.7 0.5-0.3 1.3-0.4 1.8-0.2 1 0.5 1.8 1.3 2.6 2-5.8 7.8-11.5 15.1-16.3 23q0.3 0.2 0.7 0.4 8.7-10.8 17.4-21.7c3.6 1.4 3.5 1.4 3.3 3.8-1 9.1 2.1 16.7 9 22.9 1.4 1.2 3.1 2.1 4.7 3.1z"/>
		<path id="Layer" fill-rule="evenodd" class="s1" d="m107.3 51.1c-2.6-1.6-5.2-2.9-7.6-4.6-4.1-2.8-6.9-6.7-9-11.1-0.6-1.2-0.5-2 0.9-2.9 6.6-3.9 13.5-4.5 20.7-1.6 0.3 0.1 0.6 0.2 1 0.3 0.2-0.6 0.3-1.2 0.5-1.8 2-6.3 6.2-10.4 12.8-12.4 0.8-0.3 1.8-0.2 2.6 0q9.7 2.9 12.7 12.3c0.2 0.6 0.4 1.2 0.6 1.9 0.5-0.2 0.9-0.3 1.3-0.5 7.3-2.7 14.2-2 20.8 2.1 1.1 0.7 1 1.4 0.6 2.4-2.9 6.4-7.7 11.2-14.2 14.4-0.9 0.4-1.7 0.9-2.3 1.2 0.9 2.7 2.1 5.2 2.6 7.8 0.4 2.2 0.2 4.5 0.2 6.8 0 1.4-0.9 2-2.4 2.1-8.2 0.8-15.3-1.3-20.9-7.3-0.1-0.1-0.2-0.1-0.1-0.1-2 1.5-3.9 3.1-6 4.4-4.9 3-10.3 3.6-16 3-1.3-0.2-1.7-1-1.8-2-0.5-4.4-0.1-8.7 2.1-12.6q0.4-0.8 0.9-1.7 0 0 0-0.1zm0.7 13.4c4.2-7.9 10.1-13.8 19.9-13.8 9.9 0.1 15.7 6 19.9 13.9-1.6-7.3-6.9-11.5-13.4-14.7 5.8-10.4 14.9-15.2 26.7-15.6-3.2-0.8-6.4-0.6-9.5 0.2-7.9 2.1-13.9 6.4-17.7 13.4-0.6 1-1.2 1.4-2.4 1.1-0.8-0.2-1.6-0.3-2.6-0.5 0-4.6 0.1-9.1 0-13.7-0.1-4.5-0.4-9-0.6-13.6q-0.4 0-0.7 0c-0.9 9.1-0.9 18.2-0.9 27.3-0.7 0.2-1.2 0.2-1.6 0.4-1.7 0.5-2.6 0-3.5-1.6-4.7-7.9-11.9-12.3-21.2-13.4-1.9-0.2-3.9 0-5.8 0.1q0 0.2 0 0.4c11.9 0.3 21 5.1 26.8 15.5-6.6 3.2-11.8 7.4-13.4 14.6z"/>
		<path id="Layer" fill-rule="evenodd" class="s1" d="m43.9 124.1c-1.8 1.5-3.4 3-5.1 4.3-4.6 3.6-9.9 5.5-15.8 6-1.3 0.2-1.9-0.3-2.2-1.6-2-7.3-0.4-13.8 4.8-19.5 0.1-0.2 0.2-0.3 0.2-0.4-2.1-2-4.4-3.8-6.2-6-2.7-3.2-3.7-7-3.5-11.1 0-0.6 0.2-1.3 0.6-1.9q6.1-8.2 16.7-7.9c0.4 0 0.8 0 1.3 0 0.1 0 0.2 0 0.2-0.1 0.2-2.1 0.1-4.3 0.4-6.4 0.9-5.4 3.8-9.7 8.3-13.1 0.9-0.7 1.5-0.5 2.3 0.1 4.5 3.7 7.6 8.2 9.2 13.6 0.5 1.8 0.8 3.6 1.1 5.3 0.2 1.1 0.6 1.5 1.8 1.2 4.6-1 8.9-0.1 13.2 1.6 2.4 0.9 2.4 1 1.9 3.4-1.6 7.3-5.8 12.8-13 16.1q-0.3 0.1-0.6 0.3c1 3 2.1 5.6 2.7 8.3 1.1 4.9-0.2 9.6-2.4 14.1-0.5 1.1-1.4 1.2-2.4 1-4.5-1-8.8-2.6-12.1-6-0.4-0.5-0.9-0.9-1.4-1.3zm-18.1-11.2q0 0 0 0 0.1 0 0 0zm33.7-4.9q0-0.1-0.1-0.1c-0.2 0.3-0.1 0.2-0.1 0.2q0.1 0 0.2-0.1zm-38.9-11.8c8.7 3.9 17.8 6.6 26.8 9.6 0 0.5-0.1 0.9-0.1 1.3-0.3 2.4-0.4 2.4-2.9 2.9-9.4 2-16 7.3-19.9 15.7-0.7 1.5-0.9 3.2-1.4 4.8 0.4 0 0.5 0 0.5 0 0.2-0.7 0.5-1.4 0.8-2.1 3.9-8.9 10.6-14.7 20.6-17 2.2-0.5 2.2-0.4 2.6 1.7 1.1 5.6 3.6 10.4 8.5 13.9 0.4 0.3 0.9 0.6 1.4 0.8-6.4-6.3-10.5-13.4-7.5-22.4 3-9 10.7-12.5 19.9-13.9-1.4-0.2-2.7-0.3-4-0.1-5.9 0.6-10.5 3.7-14.7 7.7-4.1-3.9-6.8-8.4-8-13.6-1.2-5.3-0.9-10.5 0.7-15.6-0.9 1.6-1.7 3.3-2.1 5.1q-2.8 13.7 7.1 24c0.4 0.4 1 1.2 0.9 1.6-0.4 1-1 2-1.6 3-9.2-2.8-18.2-5.7-27.6-7.4z"/>
		<path id="Layer" fill-rule="evenodd" class="s1" d="m196.6 108.1c-5.7-2.3-9.8-6.1-12.2-11.4-0.8-1.8-1.2-3.8-1.9-5.7-0.4-1.4 0.2-2.1 1.3-2.5 4.3-1.8 8.6-2.9 13.2-2 0.7 0.1 1.4 0.2 2.2 0.3 0.5-2.2 0.9-4.4 1.5-6.5 1.5-5.5 4.6-10 9.1-13.7 0.9-0.8 1.6-0.8 2.6-0.1 5.8 4.6 8.6 10.3 8.3 17.5 0 0.6 0 1.2 0 2q0.8 0 1.6 0 10.6-0.4 16.7 7.8c0.4 0.7 0.7 1.5 0.7 2.3 0.1 6.8-2.9 12-8.8 15.7-0.4 0.3-0.8 0.5-1.1 0.7 1.4 1.9 2.8 3.7 3.8 5.7 2.6 4.8 2.8 9.9 1.3 15.1-0.3 1.1-1.1 1.2-2.1 1.1-7.3-0.6-13.5-3.5-18.7-8.4q-1-0.9-2.1-1.9c-1.6 1.3-3 2.9-4.8 3.8-2.7 1.4-5.7 2.3-8.7 3.4-1.3 0.5-2.2 0-2.7-1.3-3.4-7.2-3.6-14.3 0.7-21.3 0-0.2 0-0.3 0.1-0.6zm35.7 22.5q0.3-0.1 0.5-0.1c-0.7-2.1-1.2-4.3-2.2-6.2-4.3-8-11.1-12.8-20.3-14.5-0.6-0.1-1.3-0.5-1.5-0.9-0.3-1-0.3-2.1-0.5-3.1 9.2-3 18.2-5.7 26.8-9.6-9.4 1.7-18.4 4.6-27.4 7.3-2.2-3-2.2-2.9 0.2-5.6 6.1-6.9 8-14.9 5.9-23.8-0.4-1.5-1.2-2.9-1.8-4.3q-0.2 0.1-0.4 0.1c1.9 5.1 2.2 10.3 1 15.5-1.2 5.3-3.9 9.9-7.9 13.6-2-1.5-3.7-3.1-5.7-4.3-2-1.1-4.1-2-6.3-2.7-3-1-5.6-1-6.7-0.3 9.1 1.3 16.8 4.7 19.8 13.7 3 9-1.2 16.1-7.6 22.3 6.7-3.7 9.3-9.7 10.4-16.7 12.1 2.1 19.7 8.9 23.7 19.6z"/>
		<path id="Layer" fill-rule="evenodd" class="s1" d="m170.6 185.7c0.5-1.9 0.8-3.8 1.4-5.7 2.1-5.7 6.3-9.7 11.7-12.6 1.4-0.7 2.2 0.1 2.9 0.9 3 3.4 5.4 7.1 5.8 11.6 0.2 1.5 0.8 1.7 2.1 1.5 6.2-1.1 12.2-0.7 18 1.7 1.3 0.6 2.5 1.3 3.7 1.9 1.1 0.5 1.2 1.2 0.7 2.3-2.8 7-8 11.4-15.6 13.2-0.4 0-0.7 0.2-0.8 0.2 0.5 2.8 1.2 5.5 1.4 8.2 0.2 4.1-1.3 7.8-3.9 11-0.5 0.6-1.1 1-1.8 1.3-6.8 2.2-13 1.1-18.6-3.2q-0.5-0.3-1-0.7c-1.4 1.7-2.6 3.4-4.1 4.8-4 4.1-9.1 6-14.9 6.3-1.3 0-1.6-0.6-1.9-1.6-1.6-6.7-0.7-13.1 2.5-19.3q0.5-1 1-2.1c0.2-0.2 0.3-0.4 0.5-0.8-0.7-0.4-1.4-0.7-2-1-4.3-1.9-7.1-5.3-9.5-9-0.7-1.1-0.5-2 0.5-2.9 6.1-5.3 13.1-7.6 21.3-6 0.2 0.1 0.4 0 0.6 0zm11.9 4.8c1.1-3.5 2.3-6.7 2.9-9.9 0.7-3.3 0.2-6.7-1.5-9.8 1.4 8.8 0.4 16.8-7.6 22.4-8 5.6-16.4 4-24.6 0q0.5 0.7 1.2 1.2c5.1 3.5 10.8 4.2 16.9 3.3 1.3-0.2 1.9 0.1 2 1.5 1 10.2-2.9 18.4-11 24.9-0.5 0.3-1 0.7-1.6 1.2 0.4 0 0.5 0 0.6 0q0.4-0.2 0.7-0.4c9.6-5.7 13.5-14.1 12.9-24.7-0.1-3-0.3-3 2.6-4.3 0.2 0 0.4-0.1 0.7-0.2 5.7 7.3 11.2 14.8 17.8 21.4-4.6-8-10.3-15.3-15.9-22.8 0.5-0.4 0.9-0.8 1.2-1.2 1-1.5 2.1-1.4 3.8-0.7 8.9 3.9 17.6 3.3 25.9-1.4 1.5-0.8 2.7-2 4.1-3-10.1 6.1-20.4 7.3-31.1 2.5z"/>
		<path id="Layer" class="s1" d="m128.1 144.8c-8.7 0-15.7-6.7-15.7-15 0-8.4 7-15.1 15.7-15.1 8.7 0 15.8 6.7 15.8 15.1 0 8.3-7.1 15-15.8 15z"/>
		<path id="Layer" class="s1" d="m129.6 112.9c-1.3 0-2.3 0-3.4 0 0-8.9 0-17.6 0-26.5-3.9-0.3-7.6-0.7-11.3-1q0-0.4 0-0.8c3.6-1 7.4-0.8 11.2-1.1 0-2.4 0-4.7 0-6.8q-6.1 2.3-12.2 4.6c-0.2 0-0.4-0.1-0.9-0.3 0.7-0.8 1.2-1.6 2-2.1q4.9-3.5 10-6.7c0.9-0.6 1.3-1.1 1.2-2.1-0.1-1.3 0-2.5 0-3.7 0-0.4-0.1-0.8 0.1-1.1 0.5-0.7 1.1-1.4 1.6-2 0.6 0.7 1.4 1.3 1.6 2.1 0.2 1.4 0.1 2.9 0 4.3 0 1.2 0.4 1.9 1.5 2.6 3.3 2.1 6.5 4.3 9.8 6.5 0.7 0.6 1.2 1.3 2.2 2.3-2.9 0.3-4.9-0.9-6.9-1.8-2.1-0.9-4.2-1.9-6.4-2.9 0 2.4 0 4.7 0 7.1 3.7 0.3 7.5 0.1 11.2 1.4-3.6 1.4-7.5 1-11.3 1.4 0 8.9 0 17.6 0 26.6z"/>
		<path id="Layer" class="s1" d="m116.4 142.5c1 0.7 1.9 1.3 2.8 1.9q-8.1 10.7-16.2 21.2c2.9 2.5 5.8 4.9 8.6 7.2q-0.3 0.4-0.5 0.7c-3.6-1.3-6.5-3.5-9.9-5.5-1.4 1.9-2.8 3.8-4.4 5.8 4.7 0.9 9.3 1.1 13.4 3q0 0.3 0.1 0.6c-0.9 0.2-1.8 0.6-2.6 0.7q-6.1 0-12.3-0.2c-1.1-0.1-1.9 0.1-2.5 1.1-0.7 1.1-1.6 2.1-2.4 3.1-0.1 0.3-0.3 0.6-0.6 0.7-0.8 0.3-1.6 0.4-2.5 0.6 0-0.8-0.3-1.8 0-2.4 0.8-1.5 1.9-2.8 3-4.1 0.6-0.7 0.5-1.3 0.2-2.2q-2.1-5.7-4-11.4c-0.3-0.7-0.2-1.6-0.3-2.4q0.2-0.1 0.5-0.2c0.5 0.5 1.2 1 1.6 1.6 1.9 3.1 3.8 6.2 5.8 9.5q2.1-2.8 4.3-5.6c-2.9-2.5-6.2-4.4-8.2-7.6 3.6 1 6.7 3.3 9.9 5.3 5.5-7.1 10.8-14.2 16.2-21.4z"/>
		<path id="Layer" class="s1" d="m85 117.8c-1.6 3.5-3.1 6.8-4.6 10.1q-0.3-0.1-0.7-0.3c0.1-3.6 1.4-7 2.4-10.6-2.4-0.8-4.7-1.5-7.2-2.3 0.4 4.6 1.9 8.8 1.1 13.2q-0.3 0.1-0.5 0.2c-0.5-0.7-1.1-1.4-1.4-2.1-1.2-3.7-2.5-7.4-3.6-11.1-0.3-1.2-0.8-2-2.1-2.2-1.1-0.3-2.2-0.8-3.3-1-1.5-0.3-2.4-1.2-2.9-2.6 1.2-0.8 2.5-1.1 3.8-0.4 3.5 1.9 6.4 1.1 9.2-1.6 2-2 4.6-3.3 7-4.9 0.7-0.4 1.5-0.6 2.4-0.7-1.8 4.2-5.5 6.8-8.7 10.2 2.4 0.8 4.7 1.5 7.1 2.2 1.5-3.4 3-6.7 4.5-10q0.3 0.1 0.6 0.2c0 0.6 0.1 1.2 0 1.7-0.6 2.6-1.2 5.1-1.9 7.6-0.4 1.2-0.1 1.5 1 1.9 7.8 2.4 15.5 4.8 23.3 7.2 0.4 0.1 0.8 0.3 1.4 0.5-0.4 1-0.7 1.9-1 2.9-8.7-2.7-17.3-5.4-25.9-8.1z"/>
		<path id="Layer" class="s1" d="m169.8 114.9c-0.9-3.7-1.7-7.2-2.5-10.7q0.4-0.1 0.9-0.2c0.8 1.6 1.6 3.1 2.4 4.7 0.7 1.7 1.4 3.5 2.1 5.3 2.4-0.8 4.7-1.5 7.2-2.3-3.2-3.3-6.9-6.1-9-10q0.1-0.2 0.3-0.5c0.8 0.3 1.7 0.5 2.4 1 3.3 2.3 6.7 4.7 9.9 7.1 0.9 0.6 1.5 0.9 2.6 0.5 1.2-0.5 2.6-0.7 3.8-1.2 1.4-0.5 2.5-0.2 3.7 0.4-0.5 1.5-1.4 2.5-3 2.7-3.8 0.4-5.6 2.4-6.2 6.1-0.4 2.8-1.8 5.5-2.8 8.2-0.2 0.7-0.8 1.3-1.5 2-1.1-4.5 0.3-8.7 0.8-13.3-2.5 0.8-4.8 1.5-7.2 2.2 0.9 3.7 2.3 7.1 2.2 10.8-2.5-2.9-3.5-6.4-4.9-9.9-8.6 2.6-17 5.3-25.6 7.9-0.4-1-0.7-1.9-1.1-2.9 8.5-2.7 17-5.3 25.5-7.9z"/>
		<path id="Layer" class="s1" d="m168.7 183.3c-1.5-0.1-2.7-0.6-3.3-1.8-1.7-3.5-4.4-4.5-8.3-3.8-2.9 0.4-5.9 0-8.8-0.1-0.9 0-1.7-0.3-2.5-0.7 4.1-2.4 8.8-2.4 13.5-3.4-1.6-2-3-3.9-4.5-5.9-3.3 2-6.2 4.3-9.9 5.3 2.1-3.1 5.3-5.1 8.2-7.5-2.7-3.6-5.3-7.1-8-10.6-2.6-3.4-5.2-6.9-7.9-10.4 0.9-0.7 1.7-1.3 2.6-1.9 2.7 3.6 5.4 7.1 8 10.6q3.9 5.1 7.9 10.3c3.3-1.8 6.6-3.7 9.8-5.5q0.2 0.3 0.4 0.6c-2.2 2.9-5.4 4.8-8.4 7.3 1.4 1.9 2.9 3.8 4.4 5.8 2.4-3.9 3.9-8.1 7.2-11.2q0.3 0.1 0.6 0.1c-0.1 0.9 0 1.7-0.2 2.5-1.3 3.7-2.6 7.4-4 11.1-0.4 1.1-0.5 1.9 0.4 2.8 0.8 0.9 1.4 2 2.3 3 0.9 1 0.9 2.1 0.5 3.4z"/>
	</g>
</svg>