<svg version="1.2" xmlns="http://www.w3.org/2000/svg" viewBox="0 0 500 100" width="500" height="100">
	<title>Novo Projeto</title>
	<style>
		.s0 { fill: #334155 } 
	</style>
	<path id="&lt;Compound Path&gt;" fill-rule="evenodd" class="s0" d="m4.3-2.7q-0.4 0.4-0.7 0.9-1.8-0.2-3.6-0.2v1c7 0 13.4 3.1 17.8 7.9q-1.6 0.5-3.1 1.1c-3.8-3.7-9-6-14.7-6v1c5.3 0 10.1 2.1 13.7 5.5q-1.5 0.7-2.8 1.6c-3-2.5-6.8-4-10.9-4v1c3.8 0 7.3 1.4 10 3.6q-1.2 0.9-2.4 2c-2.1-1.6-4.7-2.6-7.6-2.6v1.1c2.6 0 5 0.8 6.9 2.2q-1.1 1.1-2 2.3c-1.4-1-3.1-1.5-4.9-1.5v1c1.6 0 3.1 0.5 4.3 1.3q-0.4 0.5-0.7 1-1.8-0.3-3.6-0.3v1c7 0 13.4 3.1 17.8 8q-1.6 0.4-3.1 1.1c-3.8-3.7-9-6-14.7-6v1c5.3 0 10.1 2.1 13.7 5.4q-1.5 0.8-2.8 1.6c-3-2.5-6.7-4-10.9-4v1.1c3.8 0 7.3 1.3 10 3.5q-1.2 1-2.4 2c-2.1-1.6-4.7-2.5-7.6-2.5v1c2.6 0 4.9 0.8 6.9 2.2q-1.1 1.1-2 2.3c-1.4-0.9-3.1-1.5-4.9-1.5v1.1c1.6 0 3.1 0.4 4.3 1.3q-0.4 0.4-0.7 0.9-1.8-0.2-3.6-0.2v1c7 0 13.4 3 17.8 7.9q-1.6 0.5-3.1 1.1c-3.8-3.7-9-6-14.7-6v1c5.3 0 10.1 2.1 13.7 5.5q-1.5 0.7-2.8 1.6c-3-2.5-6.7-4-10.9-4v1c3.8 0 7.3 1.3 10 3.6q-1.2 0.9-2.4 2c-2.1-1.6-4.7-2.6-7.6-2.6v1.1c2.6 0 4.9 0.8 6.9 2.2q-1.1 1.1-2 2.3c-1.4-1-3.1-1.5-4.9-1.5v1c1.6 0 3.1 0.5 4.3 1.3q-0.4 0.5-0.7 1-1.8-0.3-3.6-0.3v1c7 0 13.4 3.1 17.8 8q-1.6 0.4-3.1 1.1c-3.8-3.7-9-6-14.7-6v1c5.3 0 10.1 2.1 13.7 5.4q-1.5 0.8-2.8 1.6c-3-2.5-6.7-4-10.9-4v1c3.8 0 7.3 1.4 10 3.6q-1.2 1-2.4 2c-2.1-1.6-4.7-2.5-7.6-2.5v1c2.6 0 5 0.8 6.9 2.2q-1.1 1.1-2 2.3c-1.4-0.9-3.1-1.5-4.9-1.5v1.1c1.6 0 3.1 0.4 4.3 1.2q-0.4 0.5-0.7 1-1.8-0.2-3.6-0.2v1c7 0 13.4 3 17.8 7.9q-1.6 0.5-3.1 1.1c-3.8-3.7-9-6-14.7-6v1c5.3 0 10.1 2.1 13.7 5.5q-1.5 0.7-2.8 1.6c-3-2.5-6.7-4-10.9-4v1c3.8 0 7.3 1.3 10 3.6q-1.2 0.9-2.4 2c-2.1-1.6-4.7-2.6-7.6-2.6v1c2.6 0 5 0.9 6.9 2.3q-1.1 1.1-2 2.3c-1.4-1-3.1-1.5-4.9-1.5v1c1.6 0 3.1 0.5 4.3 1.3q-0.4 0.5-0.7 1-1.8-0.3-3.6-0.3v1c5.4 0 10.3 1.8 14.3 4.8h1.7c2.1-2.4 5.2-3.9 8.7-3.9 3.5 0 6.6 1.5 8.7 3.9h2.3c4-3 8.9-4.8 14.3-4.8 5.4 0 10.3 1.8 14.3 4.8h1.7c2.1-2.4 5.2-3.9 8.7-3.9 3.5 0 6.6 1.5 8.7 3.9h2.3c4-3 8.9-4.8 14.3-4.8 5.4 0 10.3 1.8 14.3 4.8h1.7c2.1-2.4 5.2-3.9 8.7-3.9 3.5 0 6.6 1.5 8.7 3.9h2.3c4-3 8.9-4.8 14.3-4.8 5.4 0 10.3 1.8 14.3 4.8h1.7c2.1-2.4 5.2-3.9 8.7-3.9 3.5 0 6.6 1.5 8.7 3.9h2.3c4-3 8.9-4.8 14.3-4.8 5.3 0 10.3 1.8 14.3 4.8h1.7c2.1-2.4 5.2-3.9 8.7-3.9 3.5 0 6.6 1.5 8.7 3.9h2.3c4-3 8.9-4.8 14.3-4.8 5.3 0 10.3 1.8 14.3 4.8h1.6c2.2-2.4 5.3-3.9 8.8-3.9 3.5 0 6.6 1.5 8.7 3.9h2.3c4-3 8.9-4.8 14.3-4.8 5.3 0 10.3 1.8 14.3 4.8h1.6c2.2-2.4 5.3-3.9 8.8-3.9 3.4 0 6.6 1.5 8.7 3.9h2.3c4-3 8.9-4.8 14.3-4.8 5.3 0 10.3 1.8 14.3 4.8h1.6c2.2-2.4 5.3-3.9 8.8-3.9 3.4 0 6.6 1.5 8.7 3.9h2.3c4-3 8.9-4.8 14.3-4.8 5.3 0 10.3 1.8 14.3 4.8h1.6c2.2-2.4 5.3-3.9 8.8-3.9 3.4 0 6.6 1.5 8.7 3.9h2.3c4-3 8.9-4.8 14.3-4.8 5.3 0 10.3 1.8 14.3 4.8h1.6c2.2-2.4 5.3-3.9 8.8-3.9 3.4 0 6.6 1.5 8.7 3.9h2.2c4-3 9-4.8 14.4-4.8v-1q-2.2 0-4.2 0.4-0.3-0.4-0.5-0.8c1.3-1 2.9-1.6 4.7-1.6v-1c-2 0-3.8 0.7-5.3 1.8q-0.9-1.2-2-2.3c2-1.6 4.5-2.6 7.3-2.6v-1c-3 0-5.8 1.1-8 2.8q-1.1-1-2.3-2c2.7-2.4 6.3-3.8 10.3-3.8v-1c-4.3 0-8.2 1.6-11.2 4.2q-1.3-0.9-2.7-1.6c3.6-3.5 8.5-5.7 13.9-5.7v-1c-5.8 0-11.1 2.4-14.9 6.2q-1.5-0.7-3-1.2c4.4-4.9 10.8-8 17.9-8v-1q-2.2 0-4.2 0.3-0.3-0.4-0.5-0.8c1.3-1 2.9-1.5 4.7-1.5v-1.1c-2 0-3.8 0.7-5.3 1.8q-0.9-1.2-2-2.3c2-1.6 4.5-2.5 7.3-2.5v-1c-3 0-5.8 1-8 2.8q-1.1-1.1-2.3-2c2.7-2.4 6.3-3.9 10.3-3.9v-1c-4.3 0-8.2 1.6-11.2 4.3q-1.3-0.9-2.7-1.7c3.6-3.4 8.5-5.6 13.9-5.6v-1c-5.8 0-11.1 2.4-14.9 6.2q-1.5-0.7-3-1.2c4.4-4.9 10.8-8.1 17.9-8.1v-1q-2.2 0-4.2 0.4-0.3-0.4-0.5-0.8c1.3-1 2.9-1.6 4.7-1.6v-1c-2 0-3.8 0.7-5.3 1.8q-0.9-1.2-2-2.3c2-1.6 4.5-2.5 7.3-2.5v-1.1c-3 0-5.8 1.1-8 2.8q-1.1-1-2.3-2c2.7-2.3 6.3-3.8 10.3-3.8v-1c-4.3 0-8.2 1.6-11.2 4.2q-1.3-0.9-2.7-1.6c3.6-3.5 8.5-5.7 13.9-5.7v-1c-5.8 0-11.1 2.4-14.9 6.2q-1.5-0.7-3-1.2c4.4-4.9 10.8-8 17.9-8v-1q-2.2 0-4.2 0.3-0.3-0.4-0.5-0.8c1.3-0.9 2.9-1.5 4.7-1.5v-1.1c-2 0-3.8 0.7-5.3 1.8q-0.9-1.2-2-2.3c2-1.6 4.5-2.5 7.3-2.5v-1c-3 0-5.8 1-8 2.8q-1.1-1.1-2.3-2c2.7-2.4 6.3-3.8 10.3-3.8v-1.1c-4.3 0-8.2 1.6-11.2 4.3q-1.3-0.9-2.7-1.6c3.6-3.5 8.5-5.7 13.9-5.7v-1c-5.8 0-11.1 2.4-14.9 6.2q-1.5-0.7-3-1.2c4.4-4.9 10.8-8.1 17.9-8.1v-1q-2.2 0-4.2 0.4-0.3-0.4-0.5-0.8c1.3-1 2.9-1.6 4.7-1.6v-1c-2 0-3.8 0.7-5.3 1.8q-0.9-1.2-2-2.3c2-1.6 4.5-2.5 7.3-2.5v-1.1c-3 0-5.8 1.1-8 2.8q-1.1-1-2.3-2c2.7-2.3 6.3-3.8 10.3-3.8v-1c-4.3 0-8.2 1.6-11.2 4.2q-1.3-0.9-2.7-1.6c3.6-3.5 8.5-5.7 13.9-5.7v-1c-5.8 0-11.1 2.4-14.9 6.2q-1.5-0.7-3-1.2c4.4-4.9 10.8-8 17.9-8v-1q-2.2 0-4.2 0.3-0.3-0.4-0.5-0.8m-13.8 8.7c-1.6-2-4.1-3.3-6.8-3.3-2.6 0-5 1.1-6.6 2.9q-1-1.1-2.2-2.1c2.2-2.3 5.3-3.8 8.8-3.8 3.6 0 6.8 1.6 9 4.1q-1.2 1-2.2 2.2zm-0.9 0.4q-2.9-0.7-5.9-0.7-3 0-5.9 0.7c1.5-1.6 3.5-2.7 5.9-2.7 2.3 0 4.5 1.1 5.9 2.7zm-30.6 80.5c-3 0-5.8 1.1-8 2.8q-1.1-1-2.3-2c2.7-2.4 6.3-3.8 10.3-3.8 3.8 0 7.3 1.3 10 3.6q-1.3 0.9-2.4 2c-2.1-1.6-4.8-2.6-7.6-2.6zm6.9 3.3q-1.1 1.1-2 2.3c-1.4-1-3.1-1.5-4.9-1.5-2 0-3.8 0.7-5.3 1.8q-0.9-1.2-2-2.3c2-1.6 4.5-2.6 7.3-2.6 2.5 0 4.9 0.9 6.9 2.3zm-6.9-7.3c-4.3 0-8.2 1.6-11.2 4.2q-1.3-0.9-2.7-1.6c3.6-3.5 8.5-5.7 13.9-5.7 5.3 0 10.1 2.1 13.6 5.5q-1.4 0.7-2.7 1.6c-3-2.5-6.8-4-10.9-4zm0-4.1c-5.8 0-11.1 2.4-14.9 6.2q-1.4-0.7-3-1.2c4.4-4.9 10.8-8 17.9-8 7 0 13.4 3 17.8 7.9q-1.7 0.5-3.2 1.1c-3.8-3.7-8.9-6-14.6-6zm-25.3 0.9c-2.6 0-4.9 1.1-6.6 2.9q-1-1.1-2.2-2.1c2.2-2.3 5.3-3.8 8.8-3.8 3.6 0 6.8 1.6 9 4.1q-1.2 1-2.2 2.1c-1.6-1.9-4.1-3.2-6.8-3.2zm5.9 3.7q-2.9-0.7-5.9-0.7-3 0-5.9 0.7c1.5-1.6 3.5-2.7 5.9-2.7 2.3 0 4.5 1.1 5.9 2.7zm-30.6 3.5c-3 0-5.8 1.1-8 2.8q-1.1-1-2.3-2c2.7-2.4 6.3-3.8 10.3-3.8 3.8 0 7.3 1.3 10 3.6q-1.3 0.9-2.4 2c-2.1-1.6-4.8-2.6-7.6-2.6zm6.9 3.3q-1.1 1.1-2 2.3c-1.4-1-3.1-1.5-4.9-1.5-2 0-3.8 0.7-5.3 1.8q-0.9-1.2-2-2.3c2-1.6 4.5-2.6 7.3-2.6 2.6 0 4.9 0.9 6.9 2.3zm-6.9-7.3c-4.3 0-8.2 1.6-11.2 4.2q-1.3-0.9-2.7-1.6c3.6-3.5 8.5-5.7 13.9-5.7 5.3 0 10.1 2.1 13.6 5.5q-1.4 0.7-2.7 1.6c-3-2.5-6.8-4-10.9-4zm0-4.1c-5.8 0-11.1 2.4-14.9 6.2q-1.5-0.7-3-1.2c4.4-4.9 10.8-8 17.9-8 7 0 13.4 3 17.8 7.9q-1.7 0.5-3.2 1.1c-3.8-3.7-8.9-6-14.6-6zm-25.3 0.9c-2.6 0-4.9 1.1-6.6 2.9q-1-1.1-2.2-2.1c2.2-2.3 5.3-3.8 8.8-3.8 3.6 0 6.8 1.6 9 4.1q-1.2 1-2.2 2.1c-1.6-1.9-4.1-3.2-6.8-3.2zm5.9 3.7q-2.9-0.7-5.9-0.7c-2 0-4 0.2-5.9 0.7 1.5-1.6 3.5-2.7 5.9-2.7 2.3 0 4.5 1.1 5.9 2.7zm-30.6 3.5c-3 0-5.8 1.1-8 2.8q-1.1-1-2.3-2c2.7-2.4 6.3-3.8 10.3-3.8 3.8 0 7.3 1.3 10 3.6q-1.3 0.9-2.4 2c-2.1-1.6-4.8-2.6-7.6-2.6zm6.9 3.3q-1.1 1.1-2 2.3c-1.4-1-3.1-1.5-4.9-1.5-2 0-3.8 0.7-5.3 1.8q-0.9-1.2-2-2.3c2-1.6 4.5-2.6 7.3-2.6 2.6 0 4.9 0.9 6.9 2.3zm-6.9-7.3c-4.3 0-8.2 1.6-11.2 4.2q-1.3-0.9-2.7-1.6c3.6-3.5 8.5-5.7 13.9-5.7 5.3 0 10.1 2.1 13.6 5.5q-1.4 0.7-2.7 1.6c-3-2.5-6.8-4-10.9-4zm0-4.1c-5.8 0-11.1 2.4-14.9 6.2q-1.4-0.7-3-1.2c4.4-4.9 10.8-8 17.9-8 7 0 13.4 3 17.8 7.9q-1.7 0.5-3.2 1.1c-3.8-3.7-8.9-6-14.6-6zm-25.3 0.9c-2.6 0-4.9 1.1-6.6 2.9q-1-1.1-2.2-2.1c2.2-2.3 5.3-3.8 8.8-3.8 3.6 0 6.8 1.6 9 4.1q-1.2 1-2.2 2.1c-1.6-1.9-4.1-3.2-6.8-3.2zm5.9 3.7q-2.9-0.7-5.9-0.7c-2 0-4 0.2-5.8 0.7 1.4-1.6 3.4-2.7 5.8-2.7 2.3 0 4.5 1.1 5.9 2.7zm-30.6 3.5c-3 0-5.8 1.1-8 2.8q-1.1-1-2.3-2c2.7-2.4 6.3-3.8 10.3-3.8 3.8 0 7.3 1.3 10 3.6q-1.2 0.9-2.4 2c-2.1-1.6-4.8-2.6-7.6-2.6zm6.9 3.3q-1.1 1.1-2 2.3c-1.4-1-3.1-1.5-4.9-1.5-2 0-3.8 0.7-5.3 1.8q-0.9-1.2-2-2.3c2-1.6 4.5-2.6 7.3-2.6 2.6 0 4.9 0.9 6.9 2.3zm-6.9-7.3c-4.3 0-8.2 1.6-11.2 4.2q-1.3-0.9-2.7-1.6c3.6-3.5 8.5-5.7 13.9-5.7 5.3 0 10.1 2.1 13.6 5.5q-1.4 0.7-2.7 1.6c-3-2.5-6.8-4-10.9-4zm0-4.1c-5.8 0-11.1 2.4-14.9 6.2q-1.4-0.7-3-1.2c4.4-4.9 10.8-8 17.9-8 7 0 13.4 3 17.8 7.9q-1.6 0.5-3.2 1.1c-3.8-3.7-8.9-6-14.6-6zm-25.3 0.9c-2.6 0-4.9 1.1-6.6 2.9q-1-1.1-2.2-2.1c2.2-2.3 5.3-3.8 8.8-3.8 3.6 0 6.8 1.6 9 4.1q-1.2 1-2.2 2.1c-1.6-1.9-4.1-3.2-6.8-3.2zm5.9 3.7q-2.9-0.7-5.9-0.7-3 0-5.9 0.7c1.5-1.6 3.6-2.7 5.9-2.7 2.3 0 4.5 1.1 5.9 2.7zm-30.6 3.5c-3 0-5.8 1.1-8 2.8q-1.1-1-2.3-2c2.8-2.4 6.4-3.8 10.3-3.8 3.8 0 7.3 1.3 10 3.6q-1.2 0.9-2.4 2c-2.1-1.6-4.8-2.6-7.6-2.6zm6.9 3.3q-1.1 1.1-2 2.3c-1.4-1-3.1-1.5-4.9-1.5-2 0-3.8 0.7-5.3 1.8q-0.9-1.3-2-2.4c2-1.5 4.6-2.5 7.3-2.5 2.6 0 4.9 0.9 6.9 2.3zm-6.9-7.3c-4.3 0-8.2 1.6-11.2 4.2q-1.3-0.9-2.7-1.6c3.6-3.5 8.5-5.7 13.9-5.7 5.3 0 10.1 2.1 13.6 5.5q-1.4 0.7-2.7 1.6c-3-2.5-6.8-4-10.9-4zm0-4.1c-5.8 0-11.1 2.4-14.9 6.2q-1.4-0.7-3-1.2c4.4-4.9 10.8-8 17.9-8 7 0 13.4 3 17.8 7.9q-1.6 0.5-3.2 1.1c-3.8-3.7-8.9-6-14.6-6zm-25.3 0.9c-2.6 0-4.9 1.1-6.6 2.9-0.6-0.7-1.4-1.4-2.2-2.1 2.2-2.3 5.3-3.8 8.8-3.8 3.6 0 6.8 1.6 9 4.1q-1.2 1-2.2 2.1c-1.6-1.9-4.1-3.2-6.8-3.2zm5.9 3.7q-2.9-0.7-5.9-0.7-3 0-5.9 0.7c1.5-1.6 3.6-2.7 5.9-2.7 2.3 0 4.5 1.1 5.9 2.7zm-30.6 3.5c-3 0-5.8 1.1-8 2.8q-1.1-1-2.3-2c2.8-2.4 6.4-3.8 10.3-3.8 3.8 0 7.3 1.3 10 3.6q-1.2 0.9-2.4 2c-2.1-1.6-4.7-2.6-7.6-2.6zm6.9 3.3q-1.1 1.1-2 2.3c-1.4-1-3.1-1.5-4.9-1.5-2 0-3.8 0.7-5.3 1.8q-0.9-1.3-2-2.4c2-1.5 4.6-2.5 7.3-2.5 2.6 0 4.9 0.9 6.9 2.3zm-6.9-7.3c-4.3 0-8.2 1.6-11.2 4.2q-1.3-0.9-2.7-1.6c3.6-3.5 8.5-5.7 13.9-5.7 5.3 0 10.1 2.1 13.6 5.5q-1.4 0.7-2.7 1.6c-3-2.5-6.8-4-10.9-4zm0-4.1c-5.8 0-11.1 2.4-14.9 6.2q-1.4-0.7-3-1.2c4.4-4.9 10.8-8 17.9-8 7 0 13.4 3 17.8 7.9q-1.6 0.5-3.2 1.1c-3.7-3.7-8.9-6-14.6-6zm-25.3 0.9c-2.6 0-4.9 1.1-6.5 2.9-0.7-0.7-1.5-1.4-2.3-2.1 2.2-2.3 5.3-3.8 8.8-3.8 3.6 0 6.8 1.6 9 4.1q-1.2 1-2.2 2.1c-1.6-1.9-4.1-3.2-6.8-3.2zm5.9 3.7q-2.9-0.7-5.9-0.7-3 0-5.8 0.7c1.4-1.6 3.5-2.7 5.8-2.7 2.4 0 4.5 1.1 5.9 2.7zm-30.6 3.5c-3 0-5.8 1.1-8 2.8q-1.1-1-2.3-2c2.8-2.4 6.4-3.8 10.3-3.8 3.8 0 7.3 1.3 10 3.6q-1.2 0.9-2.4 2c-2.1-1.6-4.8-2.6-7.6-2.6zm6.9 3.3q-1.1 1.1-2 2.3c-1.4-1-3.1-1.5-4.9-1.5-2 0-3.8 0.7-5.3 1.8q-0.9-1.3-2-2.4c2-1.5 4.6-2.5 7.3-2.5 2.6 0 4.9 0.9 6.9 2.3zm-6.9-7.3c-4.3 0-8.2 1.6-11.2 4.2q-1.3-0.9-2.7-1.6c3.6-3.5 8.5-5.7 13.9-5.7 5.3 0 10.1 2.1 13.6 5.5q-1.4 0.7-2.7 1.6c-3-2.5-6.8-4-10.9-4zm0-4.1c-5.8 0-11.1 2.4-14.9 6.2q-1.4-0.7-3-1.2c4.4-4.9 10.8-8 17.9-8 7 0 13.4 3 17.8 7.9q-1.6 0.5-3.2 1.1c-3.7-3.7-8.9-6-14.6-6zm-25.3 0.9c-2.6 0-4.9 1.1-6.5 2.9-0.7-0.7-1.5-1.4-2.3-2.1 2.2-2.3 5.3-3.8 8.8-3.8 3.6 0 6.8 1.6 9 4.1q-1.2 1-2.2 2.1c-1.6-1.9-4.1-3.2-6.8-3.2zm5.9 3.7q-2.9-0.7-5.9-0.7c-2 0-4 0.2-5.8 0.7 1.4-1.6 3.5-2.7 5.8-2.7 2.4 0 4.5 1.1 5.9 2.7zm-30.6 3.5c-3 0-5.8 1.1-8 2.8q-1.1-1-2.3-2c2.8-2.4 6.4-3.8 10.3-3.8 3.8 0 7.3 1.3 10 3.6q-1.2 0.9-2.4 2c-2.1-1.6-4.7-2.6-7.6-2.6zm6.9 3.3q-1.1 1.1-2 2.3c-1.4-1-3.1-1.5-4.9-1.5-2 0-3.8 0.7-5.3 1.8q-0.9-1.3-2-2.4c2.1-1.5 4.6-2.5 7.3-2.5 2.6 0 4.9 0.9 6.9 2.3zm-6.9-7.3c-4.3 0-8.2 1.6-11.2 4.2q-1.3-0.9-2.7-1.6c3.6-3.5 8.5-5.7 13.9-5.7 5.3 0 10.1 2.1 13.6 5.5q-1.4 0.7-2.7 1.6c-3-2.5-6.8-4-10.9-4zm0-4.1c-5.8 0-11.1 2.4-14.8 6.2q-1.5-0.7-3.1-1.2c4.4-4.9 10.8-8 17.9-8 7 0 13.4 3 17.8 7.9q-1.6 0.5-3.2 1.1c-3.7-3.7-8.9-6-14.6-6zm-25.3 0.9c-2.6 0-4.9 1.1-6.5 2.9-0.7-0.7-1.5-1.4-2.3-2.1 2.2-2.3 5.3-3.8 8.8-3.8 3.6 0 6.8 1.6 9 4.1q-1.1 1-2.2 2.1c-1.6-1.9-4.1-3.2-6.8-3.2zm5.9 3.7q-2.8-0.7-5.9-0.7c-2 0-4 0.2-5.8 0.7 1.4-1.6 3.5-2.7 5.8-2.7 2.4 0 4.5 1.1 5.9 2.7zm-30.6 3.5c-3 0-5.8 1.1-8 2.8q-1.1-1-2.3-2c2.8-2.4 6.4-3.8 10.3-3.8 3.8 0 7.3 1.3 10 3.6q-1.2 0.9-2.4 2c-2.1-1.6-4.7-2.6-7.6-2.6zm6.9 3.3q-1.1 1.1-2 2.3c-1.4-1-3.1-1.5-4.9-1.5-2 0-3.8 0.7-5.3 1.8q-0.9-1.3-2-2.4c2.1-1.5 4.6-2.5 7.3-2.5 2.6 0 4.9 0.9 6.9 2.3zm-6.9-7.3c-4.3 0-8.2 1.6-11.2 4.2q-1.3-0.9-2.7-1.6c3.6-3.5 8.5-5.7 13.9-5.7 5.3 0 10.1 2.1 13.7 5.5q-1.5 0.7-2.8 1.6c-3-2.5-6.8-4-10.9-4zm0-4.1c-5.8 0-11.1 2.4-14.8 6.2q-1.5-0.7-3.1-1.2c4.4-4.9 10.8-8 17.9-8 7 0 13.4 3 17.8 7.9q-1.6 0.5-3.2 1.1c-3.7-3.7-8.9-6-14.6-6zm404.3-81.7q-0.4 0.4-0.7 0.9-1.8-0.2-3.6-0.2-2.2 0-4.2 0.3-0.3-0.4-0.5-0.8m-20.6 74.3c-5.2 0-9.9 2.4-13 6.1q-1.4-0.7-2.9-1.3c3.7-4.8 9.4-7.9 15.9-7.9 6.5 0 12.3 3.2 15.9 8.1q-1.4 0.6-2.8 1.3c-3.1-3.8-7.8-6.3-13.1-6.3zm12.3 6.8q-1.3 0.8-2.5 1.8c-2.4-2.8-5.9-4.6-9.8-4.6-3.8 0-7.2 1.7-9.6 4.3q-1.2-0.9-2.5-1.7c2.9-3.4 7.2-5.6 12.1-5.6 4.9 0 9.3 2.3 12.3 5.8zm-12.3-10.9c-6.9 0-13 3.4-16.8 8.6q-1.6-0.6-3.2-0.9c4.3-6.4 11.6-10.7 20-10.7 8.3 0 15.7 4.3 20 10.8q-1.6 0.4-3.1 0.9c-3.8-5.2-10-8.7-16.9-8.7zm-24.7 4.2c-2 0-3.8 0.7-5.3 1.8q-0.9-1.2-2-2.3c2-1.6 4.5-2.5 7.3-2.5 2.6 0 4.9 0.8 6.9 2.2q-1.1 1.1-2 2.3c-1.4-0.9-3.1-1.5-4.9-1.5zm4.3 2.3q-0.4 0.5-0.7 1-1.8-0.2-3.6-0.2-2.2 0-4.2 0.3-0.3-0.4-0.5-0.8c1.3-1 2.9-1.5 4.7-1.5 1.6 0 3 0.4 4.3 1.2zm-29.6-2.4c-5.2 0-9.9 2.4-13 6.1q-1.4-0.7-2.8-1.3c3.6-4.8 9.3-7.9 15.8-7.9 6.5 0 12.3 3.2 15.9 8.1q-1.4 0.6-2.8 1.3c-3.1-3.8-7.8-6.3-13.1-6.3zm12.3 6.8q-1.3 0.8-2.5 1.8c-2.4-2.8-5.9-4.6-9.8-4.6-3.8 0-7.2 1.7-9.6 4.3q-1.2-0.9-2.5-1.7c2.9-3.4 7.2-5.6 12.1-5.6 4.9 0 9.3 2.3 12.3 5.8zm-12.3-10.9c-6.9 0-13 3.4-16.8 8.6q-1.6-0.6-3.2-0.9c4.3-6.4 11.7-10.7 20-10.7 8.4 0 15.7 4.3 20 10.8q-1.6 0.4-3.1 0.9c-3.8-5.2-10-8.7-16.9-8.7zm-24.7 4.2c-2 0-3.8 0.7-5.3 1.8q-0.9-1.2-2-2.3c2-1.6 4.5-2.5 7.3-2.5 2.6 0 4.9 0.8 6.9 2.2q-1.1 1.1-2 2.3c-1.4-0.9-3.1-1.5-4.9-1.5zm4.3 2.3q-0.4 0.5-0.7 1-1.8-0.2-3.6-0.2-2.2 0-4.2 0.3-0.2-0.4-0.5-0.8c1.3-1 2.9-1.5 4.7-1.5 1.6 0 3 0.4 4.3 1.2zm-29.6-2.4c-5.2 0-9.9 2.4-13 6.1q-1.4-0.7-2.8-1.3c3.6-4.8 9.3-7.9 15.8-7.9 6.5 0 12.3 3.2 15.9 8.1q-1.4 0.6-2.8 1.3c-3.1-3.8-7.8-6.3-13.1-6.3zm12.3 6.8q-1.3 0.8-2.5 1.8c-2.4-2.8-5.9-4.6-9.8-4.6-3.8 0-7.2 1.7-9.6 4.3q-1.2-0.9-2.5-1.7c2.9-3.4 7.2-5.6 12.1-5.6 4.9 0 9.4 2.3 12.3 5.8zm-12.3-10.9c-6.9 0-13 3.4-16.8 8.6q-1.6-0.6-3.2-0.9c4.3-6.4 11.7-10.7 20-10.7 8.3 0 15.7 4.3 20 10.8q-1.6 0.4-3.1 0.9c-3.8-5.2-10-8.7-16.9-8.7zm-24.7 4.2c-2 0-3.8 0.7-5.3 1.8q-0.9-1.2-2-2.3c2-1.6 4.5-2.5 7.3-2.5 2.6 0 4.9 0.8 6.9 2.2q-1.1 1.1-2 2.3c-1.4-0.9-3.1-1.5-4.9-1.5zm4.3 2.3q-0.4 0.5-0.7 1-1.8-0.2-3.6-0.2-2.2 0-4.2 0.3-0.2-0.4-0.5-0.8c1.3-1 2.9-1.5 4.7-1.5 1.6 0 3 0.4 4.3 1.2zm-29.6-2.4c-5.2 0-9.9 2.4-13 6.1q-1.4-0.7-2.8-1.3c3.6-4.8 9.3-7.9 15.8-7.9 6.5 0 12.3 3.2 15.9 8.1q-1.4 0.6-2.8 1.3c-3-3.8-7.8-6.3-13.1-6.3zm12.3 6.8q-1.3 0.8-2.5 1.8c-2.4-2.8-5.9-4.6-9.8-4.6-3.8 0-7.2 1.7-9.6 4.3q-1.2-0.9-2.5-1.7c2.9-3.4 7.2-5.6 12.1-5.6 4.9 0 9.4 2.3 12.3 5.8zm-12.3-10.9c-6.9 0-13 3.4-16.8 8.6q-1.6-0.6-3.2-0.9c4.3-6.4 11.7-10.7 20-10.7 8.4 0 15.7 4.3 20 10.8q-1.6 0.4-3.1 0.9c-3.8-5.2-10-8.7-16.9-8.7zm-24.7 4.2c-2 0-3.8 0.7-5.3 1.8q-0.9-1.2-2-2.3c2-1.6 4.6-2.5 7.3-2.5 2.6 0 4.9 0.8 6.9 2.2q-1.1 1.1-2 2.3c-1.4-0.9-3.1-1.5-4.9-1.5zm4.3 2.3q-0.4 0.5-0.7 1-1.8-0.2-3.6-0.2-2.2 0-4.2 0.3-0.2-0.4-0.5-0.8c1.3-1 2.9-1.5 4.7-1.5 1.6 0 3 0.4 4.3 1.2zm-29.6-2.4c-5.2 0-9.9 2.4-13 6.1q-1.4-0.7-2.8-1.3c3.6-4.8 9.3-7.9 15.8-7.9 6.5 0 12.3 3.2 15.9 8.1q-1.4 0.6-2.7 1.3c-3.1-3.8-7.9-6.3-13.2-6.3zm12.3 6.8q-1.3 0.8-2.5 1.8c-2.4-2.8-5.9-4.6-9.8-4.6-3.8 0-7.2 1.7-9.6 4.3q-1.2-0.9-2.5-1.7c2.9-3.4 7.3-5.6 12.1-5.6 4.9 0 9.4 2.3 12.3 5.8zm-12.3-10.9c-6.9 0-13 3.4-16.8 8.5q-1.6-0.5-3.2-0.8c4.3-6.4 11.7-10.7 20-10.7 8.4 0 15.7 4.3 20 10.8q-1.6 0.4-3.1 0.9c-3.8-5.2-10-8.7-16.9-8.7zm-24.7 4.2c-2 0-3.8 0.7-5.3 1.8q-0.9-1.2-2-2.3c2-1.6 4.6-2.5 7.3-2.5 2.6 0 4.9 0.8 6.9 2.2q-1.1 1.1-2 2.3c-1.4-0.9-3.1-1.5-4.9-1.5zm4.3 2.3q-0.4 0.5-0.7 1-1.8-0.2-3.6-0.2-2.1 0-4.2 0.3-0.2-0.4-0.5-0.8c1.3-1 2.9-1.5 4.7-1.5 1.6 0 3.1 0.4 4.3 1.2zm-29.6-2.4c-5.2 0-9.9 2.4-13 6.1q-1.4-0.7-2.8-1.3c3.6-4.8 9.3-7.9 15.8-7.9 6.5 0 12.3 3.2 15.9 8.1q-1.4 0.6-2.7 1.3c-3.1-3.8-7.9-6.3-13.2-6.3zm12.3 6.8q-1.3 0.8-2.5 1.8c-2.4-2.8-5.9-4.6-9.8-4.6-3.8 0-7.2 1.7-9.6 4.3q-1.2-0.9-2.5-1.7c2.9-3.4 7.2-5.6 12.1-5.6 4.9 0 9.4 2.3 12.3 5.8zm-12.3-10.9c-6.9 0-13 3.4-16.8 8.5q-1.6-0.5-3.2-0.8c4.3-6.4 11.7-10.7 20-10.7 8.4 0 15.7 4.3 20 10.8q-1.6 0.4-3.1 0.9c-3.8-5.2-9.9-8.7-16.9-8.7zm-24.7 4.2c-2 0-3.8 0.7-5.3 1.8q-0.9-1.2-2-2.3c2-1.6 4.6-2.5 7.3-2.5 2.6 0 4.9 0.8 6.9 2.2q-1.1 1.1-2 2.3c-1.4-0.9-3.1-1.5-4.9-1.5zm4.3 2.3q-0.4 0.5-0.7 1-1.8-0.2-3.6-0.2-2.1 0-4.2 0.3-0.2-0.4-0.5-0.8c1.3-1 2.9-1.5 4.7-1.5 1.6 0 3.1 0.4 4.3 1.2zm-29.6-2.4c-5.2 0-9.9 2.4-13 6.1q-1.4-0.7-2.8-1.3c3.6-4.8 9.3-7.9 15.8-7.9 6.5 0 12.3 3.2 15.9 8.1q-1.4 0.6-2.7 1.3c-3.1-3.8-7.9-6.3-13.2-6.3zm12.3 6.8q-1.3 0.8-2.5 1.8c-2.4-2.8-5.9-4.6-9.8-4.6-3.8 0-7.2 1.7-9.5 4.3q-1.3-0.9-2.6-1.7c2.9-3.4 7.3-5.6 12.1-5.6 4.9 0 9.4 2.3 12.3 5.8zm-12.3-10.9c-6.9 0-13 3.4-16.8 8.5q-1.6-0.5-3.2-0.8c4.3-6.4 11.7-10.7 20-10.7 8.4 0 15.7 4.3 20 10.8q-1.6 0.4-3.1 0.9c-3.8-5.2-9.9-8.7-16.9-8.7zm-24.7 4.2c-2 0-3.8 0.7-5.3 1.8q-0.9-1.2-2-2.3c2.1-1.6 4.6-2.5 7.3-2.5 2.6 0 4.9 0.8 6.9 2.2q-1.1 1.1-2 2.3c-1.4-0.9-3.1-1.5-4.9-1.5zm4.3 2.3q-0.4 0.5-0.7 1-1.8-0.2-3.6-0.2-2.1 0-4.2 0.3-0.2-0.4-0.5-0.8c1.3-1 2.9-1.5 4.7-1.5 1.6 0 3.1 0.4 4.3 1.2zm-29.6-2.4c-5.2 0-9.9 2.4-13 6.1q-1.4-0.7-2.8-1.3c3.6-4.8 9.3-7.9 15.8-7.9 6.5 0 12.3 3.2 16 8.1q-1.5 0.6-2.8 1.3c-3.1-3.8-7.9-6.3-13.2-6.3zm12.3 6.8q-1.3 0.8-2.5 1.8c-2.4-2.8-5.9-4.6-9.8-4.6-3.8 0-7.2 1.7-9.5 4.3q-1.3-0.9-2.6-1.7c2.9-3.4 7.3-5.6 12.1-5.6 4.9 0 9.4 2.3 12.3 5.8zm-12.3-10.9c-6.9 0-13 3.4-16.8 8.5q-1.6-0.5-3.2-0.8c4.3-6.4 11.7-10.7 20-10.7 8.4 0 15.7 4.3 20 10.8q-1.6 0.4-3.1 0.9c-3.8-5.2-9.9-8.7-16.9-8.7zm325.3-3.9c-4.3 0-8.2 1.6-11.2 4.3q-1.3-0.9-2.7-1.7c3.6-3.4 8.5-5.6 13.9-5.6 5.3 0 10.1 2.1 13.6 5.4q-1.4 0.8-2.7 1.6c-3-2.5-6.8-4-10.9-4zm10 4.6q-1.3 1-2.4 2c-2.1-1.6-4.8-2.5-7.6-2.5-3 0-5.8 1-8 2.8q-1.1-1.1-2.3-2c2.7-2.4 6.3-3.9 10.3-3.9 3.8 0 7.3 1.4 10 3.6zm-10-8.6c-5.8 0-11.1 2.4-14.9 6.2q-1.5-0.7-3-1.2c4.4-4.9 10.8-8.1 17.9-8.1 7 0 13.4 3.1 17.8 8q-1.7 0.4-3.2 1.1c-3.8-3.7-8.9-6-14.6-6zm-25.3 0.8c-2.6 0-4.9 1.2-6.6 3q-1-1.1-2.2-2.1c2.2-2.4 5.3-3.9 8.8-3.9 3.6 0 6.8 1.6 9 4.2q-1.2 1-2.2 2.1c-1.6-2-4.1-3.3-6.8-3.3zm5.9 3.8q-2.9-0.7-5.9-0.7-3 0-5.9 0.6c1.5-1.6 3.5-2.7 5.9-2.7 2.3 0 4.5 1.1 5.9 2.8zm-30.6-0.6c-4.3 0-8.2 1.6-11.2 4.3q-1.3-0.9-2.7-1.7c3.6-3.4 8.5-5.6 13.9-5.6 5.3 0 10.1 2.1 13.6 5.4q-1.4 0.8-2.7 1.6c-3-2.5-6.8-4-10.9-4zm10 4.6q-1.3 1-2.4 2c-2.1-1.6-4.8-2.5-7.6-2.5-3 0-5.8 1-8 2.8q-1.1-1.1-2.3-2c2.7-2.4 6.3-3.9 10.3-3.9 3.8 0 7.3 1.4 10 3.6zm-10-8.6c-5.8 0-11.1 2.4-14.9 6.2q-1.4-0.7-3-1.2c4.4-4.9 10.8-8.1 17.9-8.1 7 0 13.4 3.1 17.8 8q-1.7 0.4-3.2 1.1c-3.8-3.7-8.9-6-14.6-6zm-25.3 0.8c-2.6 0-4.9 1.2-6.6 3q-1-1.1-2.2-2.1c2.2-2.4 5.3-3.9 8.8-3.9 3.6 0 6.8 1.6 9 4.2q-1.2 1-2.2 2.1c-1.6-2-4.1-3.3-6.8-3.3zm5.9 3.8q-2.9-0.7-5.9-0.7c-2 0-4 0.2-5.8 0.6 1.4-1.6 3.4-2.7 5.8-2.7 2.3 0 4.5 1.1 5.9 2.8zm-30.6-0.6c-4.3 0-8.2 1.6-11.2 4.3q-1.3-0.9-2.7-1.7c3.6-3.4 8.5-5.6 13.9-5.6 5.3 0 10.1 2.1 13.6 5.4q-1.4 0.8-2.7 1.6c-3-2.5-6.8-4-10.9-4zm10 4.6q-1.2 1-2.4 2c-2.1-1.6-4.8-2.5-7.6-2.5-3 0-5.8 1-8 2.8q-1.1-1.1-2.3-2c2.7-2.4 6.3-3.9 10.3-3.9 3.8 0 7.3 1.4 10 3.6zm-10-8.6c-5.8 0-11.1 2.4-14.9 6.2q-1.4-0.7-3-1.2c4.4-4.9 10.8-8.1 17.9-8.1 7 0 13.4 3.1 17.8 8q-1.7 0.4-3.2 1.1c-3.8-3.7-8.9-6-14.6-6zm-25.3 0.8c-2.6 0-4.9 1.2-6.6 3q-1-1.1-2.2-2.1c2.2-2.4 5.3-3.9 8.8-3.9 3.6 0 6.8 1.6 9 4.2q-1.2 1-2.2 2.1c-1.6-2-4.1-3.3-6.8-3.3zm5.9 3.8q-2.9-0.7-5.9-0.7c-2 0-4 0.2-5.9 0.6 1.5-1.6 3.6-2.7 5.9-2.7 2.3 0 4.5 1.1 5.9 2.8zm-30.6-0.6c-4.3 0-8.2 1.6-11.2 4.3q-1.3-0.9-2.7-1.7c3.6-3.4 8.5-5.6 13.9-5.6 5.3 0 10.1 2.1 13.6 5.4q-1.4 0.8-2.7 1.6c-3-2.5-6.8-4-10.9-4zm10 4.6q-1.2 1-2.4 2c-2.1-1.6-4.8-2.5-7.6-2.5-3 0-5.8 1-8 2.8q-1.1-1.1-2.3-2c2.7-2.4 6.4-3.9 10.3-3.9 3.8 0 7.3 1.4 10 3.6zm-10-8.6c-5.8 0-11.1 2.4-14.9 6.2q-1.4-0.7-3-1.2c4.4-4.9 10.8-8.1 17.9-8.1 7 0 13.4 3.1 17.8 8q-1.6 0.4-3.2 1.1c-3.8-3.7-8.9-6-14.6-6zm-25.3 0.8c-2.6 0-4.9 1.2-6.6 3-0.6-0.8-1.4-1.5-2.2-2.1 2.2-2.4 5.3-3.9 8.8-3.9 3.6 0 6.8 1.6 9 4.2q-1.2 1-2.2 2.1c-1.6-2-4.1-3.3-6.8-3.3zm5.9 3.8q-2.9-0.7-5.9-0.7-3 0-5.9 0.6c1.5-1.6 3.6-2.7 5.9-2.7 2.3 0 4.5 1.1 5.9 2.8zm-30.6-0.6c-4.3 0-8.2 1.6-11.2 4.3q-1.3-0.9-2.7-1.7c3.6-3.4 8.5-5.6 13.9-5.6 5.3 0 10.1 2.1 13.6 5.4q-1.4 0.8-2.7 1.6c-3-2.5-6.8-4-10.9-4zm10 4.6q-1.2 1-2.4 2c-2.1-1.6-4.7-2.5-7.6-2.5-3 0-5.8 1-8 2.8q-1.1-1.1-2.3-2c2.8-2.4 6.4-3.9 10.3-3.9 3.8 0 7.3 1.4 10 3.6zm-10-8.6c-5.8 0-11.1 2.4-14.9 6.2q-1.4-0.7-3-1.2c4.4-4.9 10.8-8.1 17.9-8.1 7 0 13.4 3.1 17.8 8q-1.6 0.4-3.2 1.1c-3.7-3.7-8.9-6-14.6-6zm-25.3 0.8c-2.6 0-4.9 1.2-6.5 3-0.7-0.8-1.5-1.5-2.3-2.1 2.2-2.4 5.3-3.9 8.8-3.9 3.6 0 6.8 1.6 9 4.2q-1.2 1-2.2 2.1c-1.6-2-4.1-3.3-6.8-3.3zm5.9 3.8q-2.9-0.7-5.9-0.7-3 0-5.8 0.6c1.4-1.6 3.5-2.7 5.8-2.7 2.4 0 4.5 1.1 5.9 2.8zm-30.6-0.6c-4.3 0-8.2 1.6-11.2 4.3q-1.3-0.9-2.7-1.7c3.6-3.4 8.5-5.6 13.9-5.6 5.3 0 10.1 2.1 13.6 5.4q-1.4 0.8-2.7 1.6c-3-2.5-6.8-4-10.9-4zm10 4.6q-1.2 1-2.4 2c-2.1-1.6-4.8-2.5-7.6-2.5-3 0-5.8 1-8 2.8q-1.1-1.1-2.3-2c2.8-2.4 6.4-3.9 10.3-3.9 3.8 0 7.3 1.4 10 3.6zm-10-8.6c-5.8 0-11.1 2.4-14.9 6.2q-1.4-0.7-3-1.2c4.4-4.9 10.8-8.1 17.9-8.1 7 0 13.4 3.1 17.8 8q-1.6 0.4-3.2 1.1c-3.7-3.7-8.9-6-14.6-6zm-25.3 0.8c-2.6 0-4.9 1.2-6.5 3q-1.1-1.1-2.3-2.1c2.2-2.4 5.3-3.9 8.8-3.9 3.6 0 6.8 1.6 9 4.2q-1.2 1-2.2 2.1c-1.6-2-4.1-3.3-6.8-3.3zm5.9 3.8q-2.9-0.7-5.9-0.7c-2 0-4 0.2-5.8 0.6 1.4-1.6 3.5-2.7 5.8-2.7 2.4 0 4.5 1.1 5.9 2.8zm-30.6-0.6c-4.3 0-8.2 1.6-11.2 4.3q-1.3-0.9-2.7-1.7c3.6-3.4 8.5-5.6 13.9-5.6 5.3 0 10.1 2.1 13.6 5.4q-1.4 0.8-2.7 1.6c-3-2.5-6.8-4-10.9-4zm10 4.6q-1.2 1-2.4 2c-2.1-1.6-4.7-2.5-7.6-2.5-3 0-5.8 1-8 2.8q-1.1-1.1-2.3-2c2.8-2.4 6.4-3.9 10.3-3.9 3.8 0 7.3 1.4 10 3.6zm-10-8.6c-5.8 0-11.1 2.4-14.8 6.2q-1.5-0.7-3.1-1.2c4.4-4.9 10.8-8.1 17.9-8.1 7 0 13.4 3.1 17.8 8q-1.6 0.4-3.2 1.1c-3.7-3.7-8.9-6-14.6-6zm274.7-7.3c-5.2 0-9.9 2.4-13 6.1q-1.4-0.7-2.8-1.2c3.6-4.8 9.3-7.9 15.8-7.9 6.5 0 12.3 3.2 15.9 8q-1.4 0.6-2.8 1.4c-3.1-3.9-7.8-6.4-13.1-6.4zm12.3 6.9q-1.3 0.8-2.5 1.7c-2.4-2.7-5.9-4.5-9.8-4.5-3.8 0-7.2 1.6-9.6 4.3q-1.2-1-2.5-1.8c2.9-3.4 7.2-5.6 12.1-5.6 4.9 0 9.3 2.3 12.3 5.9zm-12.3-10.9c-6.9 0-13 3.3-16.8 8.5q-1.6-0.5-3.2-0.8c4.3-6.5 11.7-10.8 20-10.8 8.4 0 15.7 4.4 20 10.9q-1.6 0.3-3.1 0.9c-3.8-5.3-10-8.7-16.9-8.7zm-24.7 4.2c-2 0-3.8 0.7-5.3 1.8q-0.9-1.2-2-2.3c2-1.6 4.5-2.5 7.3-2.5 2.6 0 4.9 0.8 6.9 2.2q-1.1 1.1-2 2.3c-1.4-1-3.1-1.5-4.9-1.5zm4.3 2.3q-0.4 0.5-0.7 1-1.8-0.3-3.6-0.3-2.2 0-4.2 0.4-0.2-0.4-0.5-0.8c1.3-1 2.9-1.6 4.7-1.6 1.6 0 3 0.5 4.3 1.3zm-29.6-2.5c-5.2 0-9.9 2.4-13 6.1q-1.4-0.7-2.8-1.2c3.6-4.8 9.3-7.9 15.8-7.9 6.5 0 12.3 3.2 15.9 8q-1.4 0.6-2.8 1.4c-3.1-3.9-7.8-6.4-13.1-6.4zm12.3 6.9q-1.3 0.8-2.5 1.7c-2.4-2.7-5.9-4.5-9.8-4.5-3.8 0-7.2 1.6-9.6 4.3q-1.2-1-2.5-1.8c2.9-3.4 7.2-5.6 12.1-5.6 4.9 0 9.4 2.3 12.3 5.9zm-12.3-10.9c-6.9 0-13 3.3-16.8 8.5q-1.6-0.5-3.2-0.8c4.3-6.5 11.7-10.8 20-10.8 8.3 0 15.7 4.4 20 10.9q-1.6 0.3-3.1 0.9c-3.8-5.3-10-8.7-16.9-8.7zm-24.7 4.2c-2 0-3.8 0.7-5.3 1.8q-0.9-1.2-2-2.3c2-1.6 4.5-2.5 7.3-2.5 2.6 0 4.9 0.8 6.9 2.2q-1.1 1.1-2 2.3c-1.4-1-3.1-1.5-4.9-1.5zm4.3 2.3q-0.4 0.5-0.7 1-1.8-0.3-3.6-0.3-2.2 0-4.2 0.4-0.2-0.4-0.5-0.8c1.3-1 2.9-1.6 4.7-1.6 1.6 0 3 0.5 4.3 1.3zm-29.6-2.5c-5.2 0-9.9 2.4-13 6.1q-1.4-0.7-2.8-1.2c3.6-4.8 9.3-7.9 15.8-7.9 6.5 0 12.3 3.2 15.9 8q-1.4 0.6-2.8 1.4c-3-3.9-7.8-6.4-13.1-6.4zm12.3 6.9q-1.3 0.8-2.5 1.7c-2.4-2.7-5.9-4.5-9.8-4.5-3.8 0-7.2 1.6-9.6 4.3q-1.2-1-2.5-1.8c2.9-3.4 7.2-5.6 12.1-5.6 4.9 0 9.4 2.3 12.3 5.9zm-12.3-10.9c-6.9 0-13 3.3-16.8 8.5q-1.6-0.5-3.2-0.8c4.3-6.5 11.7-10.8 20-10.8 8.4 0 15.7 4.4 20 10.9q-1.6 0.3-3.1 0.9c-3.8-5.3-10-8.7-16.9-8.7zm-24.7 4.2c-2 0-3.8 0.7-5.3 1.8q-0.9-1.2-2-2.3c2-1.6 4.6-2.5 7.3-2.5 2.6 0 4.9 0.8 6.9 2.2q-1.1 1.1-2 2.3c-1.4-1-3.1-1.5-4.9-1.5zm4.3 2.3q-0.4 0.5-0.7 1-1.8-0.3-3.6-0.3-2.2 0-4.2 0.4-0.2-0.4-0.5-0.8c1.3-1 2.9-1.6 4.7-1.6 1.6 0 3 0.5 4.3 1.3zm-29.6-2.5c-5.2 0-9.9 2.4-13 6.1q-1.4-0.7-2.8-1.2c3.6-4.8 9.3-7.9 15.8-7.9 6.5 0 12.3 3.2 15.9 8q-1.4 0.6-2.7 1.4c-3.1-3.9-7.9-6.4-13.2-6.4zm12.3 6.9q-1.3 0.8-2.5 1.7c-2.4-2.7-5.9-4.5-9.8-4.5-3.8 0-7.2 1.6-9.6 4.3q-1.2-1-2.5-1.8c2.9-3.4 7.3-5.6 12.1-5.6 4.9 0 9.4 2.3 12.3 5.9zm-12.3-10.9c-6.9 0-13 3.3-16.8 8.5q-1.6-0.5-3.2-0.8c4.3-6.5 11.7-10.8 20-10.8 8.4 0 15.7 4.4 20 10.9q-1.6 0.3-3.1 0.9c-3.8-5.3-10-8.7-16.9-8.7zm-24.7 4.2c-2 0-3.8 0.7-5.3 1.8q-0.9-1.2-2-2.3c2-1.6 4.6-2.5 7.3-2.5 2.6 0 4.9 0.8 6.9 2.2q-1.1 1.1-2 2.3c-1.4-1-3.1-1.5-4.9-1.5zm4.3 2.3q-0.4 0.5-0.7 1-1.8-0.3-3.6-0.3-2.1 0-4.2 0.4-0.2-0.4-0.5-0.8c1.3-1 2.9-1.6 4.7-1.6 1.6 0 3.1 0.5 4.3 1.3zm-29.6-2.5c-5.2 0-9.9 2.4-13 6.1q-1.4-0.7-2.8-1.2c3.6-4.8 9.3-7.9 15.8-7.9 6.5 0 12.3 3.2 15.9 8q-1.4 0.6-2.7 1.4c-3.1-3.9-7.9-6.4-13.2-6.4zm12.3 6.9q-1.3 0.8-2.5 1.7c-2.4-2.7-5.9-4.5-9.8-4.5-3.8 0-7.2 1.6-9.6 4.3q-1.2-1-2.5-1.8c2.9-3.4 7.2-5.6 12.1-5.6 4.9 0 9.4 2.3 12.3 5.9zm-12.3-10.9c-6.9 0-13 3.3-16.8 8.5q-1.6-0.5-3.2-0.8c4.3-6.5 11.7-10.8 20-10.8 8.4 0 15.7 4.4 20 10.9q-1.6 0.3-3.1 0.9c-3.8-5.3-9.9-8.7-16.9-8.7zm-24.7 4.2c-2 0-3.8 0.7-5.3 1.8q-0.9-1.3-2-2.3c2-1.6 4.6-2.5 7.3-2.5 2.6 0 4.9 0.8 6.9 2.2q-1.1 1.1-2 2.3c-1.4-1-3.1-1.5-4.9-1.5zm4.3 2.3q-0.4 0.5-0.7 1-1.8-0.3-3.6-0.3-2.1 0-4.2 0.4-0.2-0.4-0.5-0.8c1.3-1 2.9-1.6 4.7-1.6 1.6 0 3.1 0.5 4.3 1.3zm-29.6-2.5c-5.2 0-9.9 2.4-13 6.1q-1.4-0.7-2.8-1.2c3.6-4.8 9.3-7.9 15.8-7.9 6.5 0 12.3 3.2 15.9 8q-1.4 0.6-2.7 1.4c-3.1-3.9-7.9-6.4-13.2-6.4zm12.3 6.9q-1.3 0.8-2.5 1.7c-2.4-2.7-5.9-4.5-9.8-4.5-3.8 0-7.2 1.6-9.5 4.3q-1.3-1-2.6-1.8c2.9-3.4 7.3-5.6 12.1-5.6 4.9 0 9.4 2.3 12.3 5.9zm-12.3-10.9c-6.9 0-13 3.3-16.8 8.5q-1.6-0.5-3.2-0.8c4.3-6.5 11.7-10.8 20-10.8 8.4 0 15.7 4.4 20 10.9q-1.6 0.3-3.1 0.9c-3.8-5.3-9.9-8.7-16.9-8.7zm225.3-3.9c-4.3 0-8.2 1.6-11.2 4.2q-1.3-0.9-2.7-1.6c3.6-3.5 8.5-5.7 13.9-5.7 5.3 0 10.1 2.1 13.6 5.5q-1.4 0.7-2.7 1.6c-3-2.5-6.8-4-10.9-4zm10 4.6q-1.3 0.9-2.4 2c-2.1-1.6-4.8-2.6-7.6-2.6-3 0-5.8 1.1-8 2.8q-1.1-1-2.3-2c2.7-2.3 6.3-3.8 10.3-3.8 3.8 0 7.3 1.3 10 3.6zm-10-8.7c-5.8 0-11.1 2.4-14.9 6.2q-1.4-0.7-3-1.2c4.4-4.9 10.8-8 17.9-8 7 0 13.4 3 17.8 7.9q-1.7 0.5-3.2 1.1c-3.8-3.7-8.9-6-14.6-6zm-25.3 0.9c-2.6 0-4.9 1.1-6.6 2.9q-1-1.1-2.2-2.1c2.2-2.3 5.3-3.8 8.8-3.8 3.6 0 6.8 1.6 9 4.1q-1.2 1-2.2 2.1c-1.6-1.9-4.1-3.2-6.8-3.2zm5.9 3.7q-2.9-0.7-5.9-0.7c-2 0-4 0.2-5.8 0.7 1.4-1.6 3.4-2.7 5.8-2.7 2.3 0 4.5 1.1 5.9 2.7zm-30.6-0.5c-4.3 0-8.2 1.6-11.2 4.2q-1.3-0.9-2.7-1.6c3.6-3.5 8.5-5.7 13.9-5.7 5.3 0 10.1 2.1 13.6 5.5q-1.4 0.7-2.7 1.6c-3-2.5-6.8-4-10.9-4zm10 4.6q-1.2 0.9-2.4 2c-2.1-1.6-4.8-2.6-7.6-2.6-3 0-5.8 1.1-8 2.8q-1.1-1-2.3-2c2.7-2.3 6.3-3.8 10.3-3.8 3.8 0 7.3 1.3 10 3.6zm-10-8.7c-5.8 0-11.1 2.4-14.9 6.2q-1.4-0.7-3-1.2c4.4-4.9 10.8-8 17.9-8 7 0 13.4 3 17.8 7.9q-1.6 0.5-3.2 1.1c-3.8-3.7-8.9-6-14.6-6zm-25.3 0.9c-2.6 0-4.9 1.1-6.6 2.9q-1-1.1-2.2-2.1c2.2-2.3 5.3-3.8 8.8-3.8 3.6 0 6.8 1.6 9 4.1q-1.2 1-2.2 2.1c-1.6-1.9-4.1-3.2-6.8-3.2zm5.9 3.7c-1.9-0.4-3.9-0.7-5.9-0.7q-3 0-5.9 0.7c1.5-1.6 3.6-2.7 5.9-2.7 2.3 0 4.5 1.1 5.9 2.7zm-30.6-0.5c-4.3 0-8.2 1.6-11.2 4.2q-1.3-0.9-2.7-1.6c3.6-3.5 8.5-5.7 13.9-5.7 5.3 0 10.1 2.1 13.6 5.5q-1.4 0.7-2.7 1.6c-3-2.5-6.8-4-10.9-4zm10 4.6q-1.2 0.9-2.4 2c-2.1-1.6-4.8-2.6-7.6-2.6-3 0-5.8 1.1-8 2.8q-1.1-1-2.3-2c2.8-2.4 6.4-3.8 10.3-3.8 3.8 0 7.3 1.3 10 3.6zm-10-8.7c-5.8 0-11.1 2.4-14.9 6.2q-1.4-0.7-3-1.2c4.4-4.9 10.8-8 17.9-8 7 0 13.4 3 17.8 7.9q-1.6 0.5-3.2 1.1c-3.8-3.7-8.9-6-14.6-6zm-25.3 0.9c-2.6 0-4.9 1.1-6.6 2.9-0.6-0.7-1.4-1.4-2.2-2.1 2.2-2.3 5.3-3.8 8.8-3.8 3.6 0 6.8 1.6 9 4.1q-1.2 1-2.2 2.1c-1.6-1.9-4.1-3.2-6.8-3.2zm5.9 3.7q-2.9-0.7-5.9-0.7-3 0-5.9 0.7c1.5-1.6 3.6-2.7 5.9-2.7 2.3 0 4.5 1.1 5.9 2.7zm-30.6-0.5c-4.3 0-8.2 1.6-11.2 4.2q-1.3-0.9-2.7-1.6c3.6-3.5 8.5-5.7 13.9-5.7 5.3 0 10.1 2.1 13.6 5.5q-1.4 0.7-2.7 1.6c-3-2.5-6.8-4-10.9-4zm10 4.6q-1.2 0.9-2.4 2c-2.1-1.6-4.7-2.6-7.6-2.6-3 0-5.8 1.1-8 2.8q-1.1-1-2.3-2c2.8-2.4 6.4-3.8 10.3-3.8 3.8 0 7.3 1.3 10 3.6zm-10-8.7c-5.8 0-11.1 2.4-14.9 6.2q-1.4-0.7-3-1.2c4.4-4.9 10.8-8 17.9-8 7 0 13.4 3 17.8 7.9q-1.6 0.5-3.2 1.1c-3.7-3.7-8.9-6-14.6-6zm-25.3 0.9c-2.6 0-4.9 1.1-6.5 2.9-0.7-0.7-1.5-1.4-2.3-2.1 2.2-2.3 5.3-3.8 8.8-3.8 3.6 0 6.8 1.6 9 4.1q-1.2 1-2.2 2.1c-1.6-1.9-4.1-3.2-6.8-3.2zm5.9 3.7q-2.9-0.7-5.9-0.7-3 0-5.8 0.7c1.4-1.6 3.5-2.7 5.8-2.7 2.4 0 4.5 1.1 5.9 2.7zm-30.6-0.5c-4.3 0-8.2 1.6-11.2 4.2q-1.3-0.9-2.7-1.6c3.6-3.5 8.5-5.7 13.9-5.7 5.3 0 10.1 2.1 13.6 5.5q-1.4 0.7-2.7 1.6c-3-2.5-6.8-4-10.9-4zm10 4.6q-1.2 0.9-2.4 2c-2.1-1.6-4.8-2.6-7.6-2.6-3 0-5.8 1.1-8 2.8q-1.1-1-2.3-2c2.8-2.4 6.4-3.8 10.3-3.8 3.8 0 7.3 1.3 10 3.6zm-10-8.7c-5.8 0-11.1 2.4-14.9 6.2q-1.4-0.7-3-1.2c4.4-4.9 10.8-8 17.9-8 7 0 13.4 3 17.8 7.9q-1.6 0.5-3.2 1.1c-3.7-3.7-8.9-6-14.6-6zm174.7-7.2c-5.2 0-9.9 2.4-13 6.1q-1.4-0.7-2.8-1.3c3.6-4.8 9.3-7.9 15.8-7.9 6.5 0 12.3 3.2 15.9 8.1q-1.4 0.6-2.8 1.3c-3.1-3.8-7.8-6.3-13.1-6.3zm12.3 6.8q-1.3 0.8-2.5 1.8c-2.4-2.8-5.9-4.6-9.8-4.6-3.8 0-7.2 1.7-9.6 4.3q-1.2-0.9-2.5-1.7c2.9-3.4 7.2-5.6 12.1-5.6 4.9 0 9.4 2.3 12.3 5.8zm-12.3-10.9c-6.9 0-13 3.4-16.8 8.6q-1.6-0.6-3.2-0.9c4.3-6.4 11.7-10.7 20-10.7 8.3 0 15.7 4.3 20 10.8q-1.6 0.4-3.1 0.9c-3.8-5.2-10-8.7-16.9-8.7zm-24.7 4.2c-2 0-3.8 0.7-5.3 1.8q-0.9-1.2-2-2.3c2-1.6 4.5-2.5 7.3-2.5 2.6 0 4.9 0.8 6.9 2.2q-1.1 1.1-2 2.3c-1.4-0.9-3.1-1.5-4.9-1.5zm4.3 2.4q-0.4 0.4-0.7 0.9-1.8-0.2-3.6-0.2-2.2 0-4.2 0.3-0.2-0.4-0.5-0.8c1.3-0.9 2.9-1.5 4.7-1.5 1.6 0 3 0.4 4.3 1.3zm-29.6-2.5c-5.2 0-9.9 2.4-13 6.1q-1.4-0.7-2.8-1.3c3.6-4.8 9.3-7.9 15.8-7.9 6.5 0 12.3 3.2 15.9 8.1q-1.4 0.6-2.8 1.3c-3-3.8-7.8-6.3-13.1-6.3zm12.3 6.8q-1.3 0.8-2.5 1.8c-2.4-2.8-5.9-4.6-9.8-4.6-3.8 0-7.2 1.7-9.6 4.3q-1.2-0.9-2.5-1.7c2.9-3.4 7.2-5.6 12.1-5.6 4.9 0 9.4 2.3 12.3 5.8zm-12.3-10.9c-6.9 0-13 3.4-16.8 8.6q-1.6-0.6-3.2-0.9c4.3-6.4 11.7-10.7 20-10.7 8.4 0 15.7 4.3 20 10.8q-1.6 0.4-3.1 0.9c-3.8-5.2-10-8.7-16.9-8.7zm-24.7 4.2c-2 0-3.8 0.7-5.3 1.8q-0.9-1.2-2-2.3c2-1.6 4.6-2.5 7.3-2.5 2.6 0 4.9 0.8 6.9 2.2q-1.1 1.1-2 2.3c-1.4-0.9-3.1-1.5-4.9-1.5zm4.3 2.4q-0.4 0.4-0.7 0.9-1.8-0.2-3.6-0.2-2.2 0-4.2 0.3-0.2-0.4-0.5-0.8c1.3-0.9 2.9-1.5 4.7-1.5 1.6 0 3 0.4 4.3 1.3zm-29.6-2.5c-5.2 0-9.9 2.4-13 6.1q-1.4-0.7-2.8-1.3c3.6-4.8 9.3-7.9 15.8-7.9 6.5 0 12.3 3.2 15.9 8.1q-1.4 0.6-2.7 1.3c-3.1-3.8-7.9-6.3-13.2-6.3zm12.3 6.8q-1.3 0.8-2.5 1.8c-2.4-2.8-5.9-4.6-9.8-4.6-3.8 0-7.2 1.7-9.6 4.3q-1.2-0.9-2.5-1.7c2.9-3.4 7.3-5.6 12.1-5.6 4.9 0 9.4 2.3 12.3 5.8zm-12.3-10.9c-6.9 0-13 3.4-16.8 8.6q-1.6-0.6-3.2-0.9c4.3-6.4 11.7-10.7 20-10.7 8.4 0 15.7 4.3 20 10.8q-1.6 0.4-3.1 0.9c-3.8-5.2-10-8.7-16.9-8.7zm-24.7 4.2c-2 0-3.8 0.7-5.3 1.8q-0.9-1.2-2-2.3c2-1.6 4.6-2.5 7.3-2.5 2.6 0 4.9 0.8 6.9 2.2q-1.1 1.1-2 2.3c-1.4-0.9-3.1-1.5-4.9-1.5zm4.3 2.4q-0.4 0.4-0.7 0.9-1.8-0.2-3.6-0.2-2.1 0-4.2 0.3-0.2-0.4-0.5-0.8c1.3-0.9 2.9-1.5 4.7-1.5 1.6 0 3.1 0.4 4.3 1.3zm-29.6-2.5c-5.2 0-9.9 2.4-13 6.1q-1.4-0.7-2.8-1.3c3.6-4.8 9.3-7.9 15.8-7.9 6.5 0 12.3 3.2 15.9 8.1q-1.4 0.6-2.7 1.3c-3.1-3.8-7.9-6.3-13.2-6.3zm12.3 6.8q-1.3 0.8-2.5 1.8c-2.4-2.8-5.9-4.6-9.8-4.6-3.8 0-7.2 1.7-9.6 4.3q-1.2-0.9-2.5-1.7c2.9-3.4 7.2-5.6 12.1-5.6 4.9 0 9.4 2.3 12.3 5.8zm-12.3-10.9c-6.9 0-13 3.4-16.8 8.6q-1.6-0.6-3.2-0.9c4.3-6.4 11.7-10.7 20-10.7 8.4 0 15.7 4.3 20 10.8q-1.6 0.4-3.1 0.9c-3.8-5.2-9.9-8.7-16.9-8.7zm125.3-3.9c-4.3 0-8.2 1.6-11.2 4.3q-1.3-0.9-2.7-1.6c3.6-3.5 8.5-5.7 13.9-5.7 5.3 0 10.1 2.1 13.6 5.5q-1.4 0.7-2.7 1.5c-3-2.5-6.8-4-10.9-4zm10 4.6q-1.2 1-2.4 2c-2.1-1.6-4.8-2.5-7.6-2.5-3 0-5.8 1-8 2.8q-1.1-1.1-2.3-2c2.7-2.4 6.3-3.8 10.3-3.8 3.8 0 7.3 1.3 10 3.5zm-10-8.6c-5.8 0-11.1 2.4-14.9 6.2q-1.4-0.7-3-1.2c4.4-4.9 10.8-8.1 17.9-8.1 7 0 13.4 3.1 17.8 8q-1.6 0.4-3.2 1.1c-3.8-3.7-8.9-6-14.6-6zm-25.3 0.8c-2.6 0-4.9 1.2-6.6 3q-1-1.1-2.2-2.1c2.2-2.4 5.3-3.9 8.8-3.9 3.6 0 6.8 1.6 9 4.2q-1.2 1-2.2 2.1c-1.6-2-4.1-3.3-6.8-3.3zm5.9 3.8q-2.9-0.7-5.9-0.7-3 0-5.9 0.6c1.5-1.6 3.6-2.6 5.9-2.6 2.3 0 4.5 1 5.9 2.7zm-30.6-0.6c-4.3 0-8.2 1.6-11.2 4.3q-1.3-0.9-2.7-1.6c3.6-3.5 8.5-5.7 13.9-5.7 5.3 0 10.1 2.1 13.6 5.5q-1.4 0.7-2.7 1.5c-3-2.5-6.8-4-10.9-4zm10 4.6q-1.2 1-2.4 2c-2.1-1.6-4.8-2.5-7.6-2.5-3 0-5.8 1-8 2.8q-1.1-1.1-2.3-2c2.8-2.4 6.4-3.8 10.3-3.8 3.8 0 7.3 1.3 10 3.5zm-10-8.6c-5.8 0-11.1 2.4-14.9 6.2q-1.4-0.7-3-1.2c4.4-4.9 10.8-8.1 17.9-8.1 7 0 13.4 3.1 17.8 8q-1.6 0.4-3.2 1.1c-3.8-3.7-8.9-6-14.6-6zm-25.3 0.8c-2.6 0-4.9 1.2-6.6 3-0.6-0.8-1.4-1.5-2.2-2.1 2.2-2.4 5.3-3.9 8.8-3.9 3.6 0 6.8 1.6 9 4.2q-1.2 1-2.2 2.1c-1.6-2-4.1-3.3-6.8-3.3zm5.9 3.8q-2.9-0.7-5.9-0.7-3 0-5.9 0.6c1.5-1.6 3.6-2.6 5.9-2.6 2.3 0 4.5 1 5.9 2.7zm-30.6-0.6c-4.3 0-8.2 1.6-11.2 4.3q-1.3-0.9-2.7-1.6c3.6-3.5 8.5-5.7 13.9-5.7 5.3 0 10.1 2.1 13.6 5.4q-1.4 0.8-2.7 1.6c-3-2.5-6.8-4-10.9-4zm10 4.6q-1.2 1-2.4 2c-2.1-1.6-4.7-2.5-7.6-2.5-3 0-5.8 1-8 2.8q-1.1-1.1-2.3-2c2.8-2.4 6.4-3.8 10.3-3.8 3.8 0 7.3 1.3 10 3.5zm-10-8.6c-5.8 0-11.1 2.4-14.9 6.2q-1.4-0.7-3-1.2c4.4-4.9 10.8-8.1 17.9-8.1 7 0 13.4 3.1 17.8 8q-1.6 0.4-3.2 1.1c-3.7-3.7-8.9-6-14.6-6zm74.7-7.3c-5.2 0-9.9 2.4-13 6.1q-1.4-0.7-2.8-1.2c3.6-4.8 9.3-7.9 15.8-7.9 6.5 0 12.3 3.2 15.9 8q-1.4 0.6-2.8 1.4c-3-3.9-7.8-6.4-13.1-6.4zm12.3 6.9q-1.3 0.8-2.5 1.7c-2.4-2.7-5.9-4.5-9.8-4.5-3.8 0-7.2 1.6-9.6 4.3q-1.2-1-2.5-1.7c2.9-3.5 7.2-5.6 12.1-5.6 4.9 0 9.4 2.2 12.3 5.8zm-12.3-10.9c-6.9 0-13 3.4-16.8 8.5q-1.6-0.5-3.2-0.8c4.3-6.5 11.7-10.8 20-10.8 8.4 0 15.7 4.4 20 10.9q-1.6 0.3-3.1 0.9c-3.8-5.3-10-8.7-16.9-8.7zm-24.7 4.2c-2 0-3.8 0.7-5.3 1.8q-0.9-1.2-2-2.3c2-1.6 4.6-2.5 7.3-2.5 2.6 0 4.9 0.8 6.9 2.2q-1.1 1.1-2 2.3c-1.4-1-3.1-1.5-4.9-1.5zm4.3 2.3q-0.4 0.5-0.7 1-1.8-0.3-3.6-0.3-2.2 0-4.2 0.4-0.2-0.4-0.5-0.8c1.3-1 2.9-1.6 4.7-1.6 1.6 0 3 0.5 4.3 1.3zm-29.6-2.5c-5.2 0-9.9 2.4-13 6.1q-1.4-0.7-2.8-1.2c3.6-4.8 9.3-7.9 15.8-7.9 6.5 0 12.3 3.2 15.9 8q-1.4 0.6-2.7 1.4c-3.1-3.9-7.9-6.4-13.2-6.4zm12.3 6.9q-1.3 0.8-2.5 1.7c-2.4-2.7-5.9-4.5-9.8-4.5-3.8 0-7.2 1.6-9.6 4.3q-1.2-1-2.5-1.7c2.9-3.5 7.3-5.6 12.1-5.6 4.9 0 9.4 2.2 12.3 5.8zm-12.3-10.9c-6.9 0-13 3.4-16.8 8.5q-1.6-0.5-3.2-0.8c4.3-6.5 11.7-10.8 20-10.8 8.4 0 15.7 4.4 20 10.9q-1.6 0.3-3.1 0.9c-3.8-5.3-10-8.7-16.9-8.7zm25.3-3.9c-4.3 0-8.2 1.6-11.2 4.2q-1.3-0.9-2.7-1.6c3.6-3.5 8.5-5.7 13.9-5.7 5.3 0 10.1 2.1 13.6 5.5q-1.4 0.7-2.7 1.6c-3-2.5-6.8-4-10.9-4zm10 4.6q-1.2 0.9-2.4 2c-2.1-1.6-4.8-2.6-7.6-2.6-3 0-5.8 1.1-8 2.8q-1.1-1-2.3-2c2.8-2.4 6.4-3.8 10.3-3.8 3.8 0 7.3 1.4 10 3.6zm-10-8.7c-5.8 0-11.1 2.4-14.9 6.2q-1.4-0.7-3-1.2c4.4-4.9 10.8-8 17.9-8 7 0 13.4 3.1 17.8 7.9q-1.6 0.5-3.2 1.1c-3.8-3.7-8.9-6-14.6-6zm4.3-4.7q-0.4 0.4-0.7 0.9-1.8-0.2-3.6-0.2-2.2 0-4.2 0.3-0.2-0.4-0.5-0.8m-0.6 1q-1.6 0.4-3.1 0.9m-33.7-0.1q-1.6-0.6-3.2-0.9m35.9 1.4q-1.4 0.6-2.7 1.3m-26.2-0.2q-1.4-0.7-2.8-1.3m28.1 2q-1.3 0.8-2.5 1.8c-2.4-2.8-5.9-4.6-9.8-4.6-3.8 0-7.2 1.7-9.6 4.3q-1.2-0.9-2.5-1.7m12.1-1.5c3.6 0 6.8 1.6 9 4.1q-1.2 1-2.2 2.2c-1.6-2-4.1-3.3-6.8-3.3-2.6 0-4.9 1.1-6.6 2.9-0.6-0.7-1.4-1.4-2.2-2.1 2.2-2.3 5.3-3.8 8.8-3.8zm5.9 6.7q-2.9-0.7-5.9-0.7-3 0-5.9 0.7c1.5-1.6 3.6-2.7 5.9-2.7 2.3 0 4.5 1.1 5.9 2.7zm38.2 0c1.5-1.6 3.6-2.7 5.9-2.7 2.3 0 4.5 1.1 5.9 2.7q-2.9-0.7-5.9-0.7c-2 0-4 0.3-5.9 0.7zm5.9-3.7c-2.6 0-4.9 1.1-6.6 2.9q-1-1.1-2.2-2.1c2.2-2.3 5.3-3.8 8.8-3.8 3.6 0 6.8 1.6 9 4.1q-1.2 1-2.2 2.2c-1.6-2-4.1-3.3-6.8-3.3zm12.3-1.3q-1.3 0.8-2.5 1.8c-2.4-2.8-5.9-4.6-9.8-4.6-3.8 0-7.2 1.7-9.6 4.3q-1.2-0.9-2.5-1.7m-0.9-0.5q-1.4-0.7-2.8-1.3m31.7 0.2q-1.4 0.6-2.8 1.3m-29.9-1.8q-1.6-0.6-3.2-0.9m40 0.1q-1.6 0.4-3.1 0.9m-87.3-2.1q-0.4 0.4-0.7 0.9-1.8-0.2-3.6-0.2-2.1 0-4.2 0.3-0.2-0.4-0.5-0.8m4.7 1.5c7 0 13.4 3.1 17.8 7.9q-1.6 0.5-3.2 1.1c-3.7-3.7-8.9-6-14.6-6-5.8 0-11.1 2.4-14.9 6.2q-1.4-0.7-3-1.2c4.4-4.9 10.8-8 17.9-8zm0 4c5.3 0 10.1 2.1 13.6 5.5q-1.4 0.7-2.7 1.6c-3-2.5-6.8-4-10.9-4-4.3 0-8.2 1.6-11.2 4.2q-1.3-0.9-2.7-1.6c3.6-3.5 8.5-5.7 13.9-5.7zm0 4.1c3.8 0 7.3 1.4 10 3.6q-1.2 0.9-2.4 2c-2.1-1.6-4.7-2.6-7.6-2.6-3 0-5.8 1.1-8 2.8q-1.1-1-2.3-2c2.8-2.4 6.4-3.8 10.3-3.8zm0 4.1c2.6 0 4.9 0.8 6.9 2.2q-1.1 1.1-2 2.3c-1.4-1-3.1-1.5-4.9-1.5-2 0-3.8 0.7-5.3 1.8q-0.9-1.2-2-2.3c2-1.6 4.6-2.5 7.3-2.5zm0 4c1.6 0 3.1 0.5 4.3 1.3q-0.4 0.5-0.7 1-1.8-0.3-3.6-0.3-2.1 0-4.2 0.4-0.2-0.4-0.5-0.8c1.3-1 2.9-1.6 4.7-1.6zm103.6 2.3q-1.8-0.3-3.6-0.3-2.2 0-4.2 0.4-0.2-0.4-0.5-0.8c1.3-1 2.9-1.6 4.7-1.6 1.6 0 3 0.5 4.3 1.3q-0.4 0.5-0.7 1zm-3.6-3.3c-2 0-3.8 0.7-5.3 1.8q-0.9-1.2-2-2.3c2-1.6 4.5-2.5 7.3-2.5 2.6 0 4.9 0.8 6.9 2.2q-1.1 1.1-2 2.3c-1.4-1-3.1-1.5-4.9-1.5zm0-4.1c-3 0-5.8 1.1-8 2.8q-1.1-1-2.3-2c2.7-2.3 6.3-3.8 10.3-3.8 3.8 0 7.3 1.4 10 3.6q-1.2 0.9-2.4 2c-2.1-1.6-4.8-2.6-7.6-2.6zm0-4c-4.3 0-8.2 1.6-11.2 4.2q-1.3-0.9-2.7-1.6c3.6-3.5 8.5-5.7 13.9-5.7 5.3 0 10.1 2.1 13.6 5.5q-1.4 0.7-2.7 1.6c-3-2.5-6.8-4-10.9-4zm0-4.1c-5.8 0-11.1 2.4-14.9 6.2q-1.4-0.7-3-1.2c4.4-4.9 10.8-8 17.9-8 7 0 13.4 3.1 17.8 7.9q-1.7 0.5-3.2 1.1c-3.8-3.7-8.9-6-14.6-6zm4.3-4.7q-0.4 0.4-0.7 0.9-1.8-0.2-3.6-0.2-2.2 0-4.2 0.3-0.2-0.4-0.5-0.8m-100.6 1q-1.6 0.4-3.1 0.9m-33.7-0.1q-1.6-0.6-3.2-0.9m35.9 1.4q-1.4 0.6-2.7 1.3m-26.2-0.2q-1.4-0.7-2.8-1.3m28.1 2q-1.3 0.8-2.5 1.8c-2.4-2.8-5.9-4.6-9.8-4.6-3.8 0-7.2 1.7-9.6 4.3q-1.2-0.9-2.5-1.7m12.1-1.5c3.6 0 6.8 1.6 9 4.1q-1.2 1-2.2 2.2c-1.6-2-4.1-3.3-6.8-3.3-2.6 0-4.9 1.1-6.5 2.9-0.7-0.7-1.5-1.4-2.3-2.1 2.2-2.3 5.3-3.8 8.8-3.8zm5.9 6.7q-2.9-0.7-5.9-0.7-3 0-5.8 0.7c1.4-1.6 3.5-2.7 5.8-2.7 2.4 0 4.5 1.1 5.9 2.7zm-5.9 0.3c8.4 0 15.7 4.4 20 10.9q-1.6 0.3-3.1 0.9c-3.8-5.3-9.9-8.7-16.9-8.7-6.9 0-13 3.4-16.8 8.5q-1.6-0.5-3.2-0.8c4.3-6.5 11.7-10.8 20-10.8zm0 4.1c6.5 0 12.3 3.2 15.9 8q-1.4 0.6-2.7 1.4c-3.1-3.9-7.9-6.4-13.2-6.4-5.2 0-9.9 2.4-13 6.1q-1.4-0.7-2.8-1.2c3.6-4.8 9.3-7.9 15.8-7.9zm0 4.1c4.9 0 9.4 2.2 12.3 5.8q-1.3 0.8-2.5 1.7c-2.4-2.7-5.9-4.5-9.8-4.5-3.8 0-7.2 1.6-9.6 4.3q-1.2-1-2.5-1.7c2.9-3.5 7.2-5.6 12.1-5.6zm0 4c3.6 0 6.8 1.6 9 4.2q-1.2 1-2.2 2.1c-1.6-2-4.1-3.3-6.8-3.3-2.6 0-4.9 1.2-6.5 3-0.7-0.8-1.5-1.5-2.3-2.1 2.2-2.4 5.3-3.9 8.8-3.9zm5.9 6.8q-2.9-0.7-5.9-0.7-3 0-5.8 0.6c1.4-1.6 3.5-2.6 5.8-2.6 2.4 0 4.5 1 5.9 2.7zm138.3-0.1c1.4-1.6 3.4-2.6 5.8-2.6 2.3 0 4.5 1 5.9 2.7q-2.9-0.7-5.9-0.7c-2 0-4 0.2-5.8 0.6zm5.8-3.7c-2.6 0-4.9 1.2-6.6 3q-1-1.1-2.2-2.1c2.2-2.4 5.3-3.9 8.8-3.9 3.6 0 6.8 1.6 9 4.2q-1.2 1-2.2 2.1c-1.6-2-4.1-3.3-6.8-3.3zm0-4c-3.8 0-7.2 1.6-9.6 4.3q-1.2-1-2.5-1.7c2.9-3.5 7.2-5.6 12.1-5.6 4.9 0 9.4 2.2 12.3 5.8q-1.3 0.8-2.5 1.7c-2.4-2.7-5.9-4.5-9.8-4.5zm0-4.1c-5.2 0-9.9 2.4-13 6.1q-1.4-0.7-2.8-1.2c3.6-4.8 9.3-7.9 15.8-7.9 6.5 0 12.3 3.2 15.9 8q-1.4 0.6-2.8 1.4c-3.1-3.9-7.8-6.4-13.1-6.4zm0-4c-6.9 0-13 3.4-16.8 8.5q-1.6-0.5-3.2-0.8c4.3-6.5 11.7-10.8 20-10.8 8.3 0 15.7 4.4 20 10.9q-1.6 0.3-3.1 0.9c-3.8-5.3-10-8.7-16.9-8.7zm-5.8-3.4c1.4-1.6 3.4-2.7 5.8-2.7 2.3 0 4.5 1.1 5.9 2.7q-2.9-0.7-5.9-0.7c-2 0-4 0.3-5.8 0.7zm5.8-3.7c-2.6 0-4.9 1.1-6.6 2.9q-1-1.1-2.2-2.1c2.2-2.3 5.3-3.8 8.8-3.8 3.6 0 6.8 1.6 9 4.1q-1.2 1-2.2 2.2c-1.6-2-4.1-3.3-6.8-3.3zm12.3-1.3q-1.3 0.8-2.5 1.8c-2.4-2.8-5.9-4.6-9.8-4.6-3.8 0-7.2 1.7-9.6 4.3q-1.2-0.9-2.5-1.7m-0.9-0.5q-1.4-0.7-2.8-1.3m31.7 0.2q-1.4 0.6-2.8 1.3m-29.9-1.8q-1.6-0.6-3.2-0.9m40 0.1q-1.6 0.4-3.1 0.9m-187.3-2.1q-0.4 0.4-0.7 0.9-1.8-0.2-3.6-0.2-2.1 0-4.2 0.3-0.2-0.4-0.5-0.8m4.7 1.5c7 0 13.4 3.1 17.8 7.9q-1.6 0.5-3.2 1.1c-3.7-3.7-8.9-6-14.6-6-5.8 0-11.1 2.4-14.9 6.2q-1.4-0.7-3-1.2c4.4-4.9 10.8-8 17.9-8zm0 4c5.3 0 10.1 2.1 13.6 5.5q-1.4 0.7-2.7 1.6c-3-2.5-6.8-4-10.9-4-4.3 0-8.2 1.6-11.2 4.2q-1.3-0.9-2.7-1.6c3.6-3.5 8.5-5.7 13.9-5.7zm0 4.1c3.8 0 7.3 1.4 10 3.6q-1.2 0.9-2.4 2c-2.1-1.6-4.8-2.6-7.6-2.6-3 0-5.8 1.1-8 2.8q-1.1-1-2.3-2c2.8-2.4 6.4-3.8 10.3-3.8zm0 4.1c2.6 0 4.9 0.8 6.9 2.2q-1.1 1.1-2 2.3c-1.4-1-3.1-1.5-4.9-1.5-2 0-3.8 0.7-5.3 1.8q-0.9-1.2-2-2.3c2-1.6 4.6-2.5 7.3-2.5zm0 4c1.6 0 3.1 0.5 4.3 1.3q-0.4 0.5-0.7 1-1.8-0.3-3.6-0.3-2.1 0-4.2 0.4-0.2-0.4-0.5-0.8c1.3-1 2.9-1.6 4.7-1.6zm0 3c7 0 13.4 3.1 17.8 8q-1.6 0.4-3.2 1.1c-3.7-3.7-8.9-6-14.6-6-5.8 0-11.1 2.4-14.9 6.2q-1.4-0.7-3-1.2c4.4-4.9 10.8-8.1 17.9-8.1zm0 4.1c5.3 0 10.1 2.1 13.6 5.4q-1.4 0.8-2.7 1.6c-3-2.5-6.8-4-10.9-4-4.3 0-8.2 1.6-11.2 4.3q-1.3-0.9-2.7-1.6c3.6-3.5 8.5-5.7 13.9-5.7zm0 4.1c3.8 0 7.3 1.3 10 3.5q-1.2 1-2.4 2c-2.1-1.6-4.8-2.5-7.6-2.5-3 0-5.8 1-8 2.8q-1.1-1.1-2.3-2c2.8-2.4 6.4-3.8 10.3-3.8zm0 4c2.6 0 4.9 0.8 6.9 2.2q-1.1 1.1-2 2.3c-1.4-0.9-3.1-1.5-4.9-1.5-2 0-3.8 0.7-5.3 1.8q-0.9-1.2-2-2.3c2-1.6 4.6-2.5 7.3-2.5zm0 4.1c1.6 0 3.1 0.4 4.3 1.3q-0.4 0.4-0.7 0.9-1.8-0.2-3.6-0.2-2.1 0-4.2 0.3-0.2-0.4-0.5-0.8c1.3-0.9 2.9-1.5 4.7-1.5zm203.6 2.2q-1.8-0.2-3.6-0.2-2.2 0-4.2 0.3-0.2-0.4-0.5-0.8c1.3-0.9 2.9-1.5 4.7-1.5 1.6 0 3 0.4 4.3 1.3q-0.4 0.4-0.7 0.9zm-3.6-3.3c-2 0-3.8 0.7-5.3 1.8q-0.9-1.2-2-2.3c2-1.6 4.5-2.5 7.3-2.5 2.6 0 4.9 0.8 6.9 2.2q-1.1 1.1-2 2.3c-1.4-0.9-3.1-1.5-4.9-1.5zm0-4c-3 0-5.8 1-8 2.8q-1.1-1.1-2.3-2c2.7-2.4 6.3-3.8 10.3-3.8 3.8 0 7.3 1.3 10 3.5q-1.3 1-2.4 2c-2.1-1.6-4.8-2.5-7.6-2.5zm0-4.1c-4.3 0-8.2 1.6-11.2 4.3q-1.3-0.9-2.7-1.6c3.6-3.5 8.5-5.7 13.9-5.7 5.3 0 10.1 2.1 13.6 5.5q-1.4 0.7-2.7 1.5c-3-2.5-6.8-4-10.9-4zm0-4c-5.8 0-11.1 2.4-14.9 6.2q-1.4-0.7-3-1.2c4.4-4.9 10.8-8.1 17.9-8.1 7 0 13.4 3.1 17.8 8q-1.7 0.4-3.2 1.1c-3.8-3.7-8.9-6-14.6-6zm3.6-3.8q-1.8-0.3-3.6-0.3-2.2 0-4.2 0.4-0.2-0.4-0.5-0.8c1.3-1 2.9-1.6 4.7-1.6 1.6 0 3 0.5 4.3 1.3q-0.4 0.5-0.7 1zm-3.6-3.3c-2 0-3.8 0.7-5.3 1.8q-0.9-1.2-2-2.3c2-1.6 4.5-2.5 7.3-2.5 2.6 0 4.9 0.8 6.9 2.2q-1.1 1.1-2 2.3c-1.4-1-3.1-1.5-4.9-1.5zm0-4.1c-3 0-5.8 1.1-8 2.8q-1.1-1-2.3-2c2.7-2.3 6.3-3.8 10.3-3.8 3.8 0 7.3 1.4 10 3.6q-1.3 0.9-2.4 2c-2.1-1.6-4.8-2.6-7.6-2.6zm0-4c-4.3 0-8.2 1.6-11.2 4.2q-1.3-0.9-2.7-1.6c3.6-3.5 8.5-5.7 13.9-5.7 5.3 0 10.1 2.1 13.6 5.5q-1.4 0.7-2.7 1.6c-3-2.5-6.8-4-10.9-4zm0-4.1c-5.8 0-11.1 2.4-14.9 6.2q-1.4-0.7-3-1.2c4.4-4.9 10.8-8 17.9-8 7 0 13.4 3.1 17.8 7.9q-1.7 0.5-3.2 1.1c-3.8-3.7-8.9-6-14.6-6zm4.3-4.7q-0.4 0.4-0.7 0.9-1.8-0.2-3.6-0.2-2.2 0-4.2 0.3-0.2-0.4-0.5-0.8m-200.6 1q-1.6 0.4-3.1 0.9m-33.7-0.1q-1.6-0.6-3.2-0.9m35.9 1.4q-1.4 0.6-2.7 1.3m-26.2-0.2q-1.4-0.7-2.8-1.3m28.1 2q-1.3 0.8-2.5 1.8c-2.4-2.8-5.9-4.6-9.8-4.6-3.8 0-7.2 1.7-9.5 4.3q-1.3-0.9-2.6-1.7m12.1-1.5c3.6 0 6.8 1.6 9 4.1q-1.2 1-2.2 2.2c-1.6-2-4.1-3.3-6.8-3.3-2.6 0-4.9 1.1-6.5 2.9q-1.1-1.1-2.3-2.1c2.2-2.3 5.3-3.8 8.8-3.8zm5.9 6.7q-2.9-0.7-5.9-0.7c-2 0-4 0.3-5.8 0.7 1.4-1.6 3.5-2.7 5.8-2.7 2.4 0 4.5 1.1 5.9 2.7zm-5.9 0.3c8.4 0 15.7 4.4 20 10.9q-1.6 0.3-3.1 0.9c-3.8-5.3-9.9-8.7-16.9-8.7-6.9 0-13 3.4-16.8 8.5q-1.6-0.5-3.2-0.8c4.3-6.5 11.7-10.8 20-10.8zm0 4.1c6.5 0 12.3 3.2 15.9 8q-1.4 0.6-2.7 1.4c-3.1-3.9-7.9-6.4-13.2-6.4-5.2 0-9.9 2.4-13 6.1q-1.4-0.7-2.8-1.2c3.6-4.8 9.3-7.9 15.8-7.9zm0 4.1c4.9 0 9.4 2.2 12.3 5.8q-1.3 0.8-2.5 1.7c-2.4-2.7-5.9-4.5-9.8-4.5-3.8 0-7.2 1.6-9.5 4.3q-1.3-1-2.6-1.7c2.9-3.5 7.3-5.6 12.1-5.6zm0 4c3.6 0 6.8 1.6 9 4.2q-1.2 1-2.2 2.1c-1.6-2-4.1-3.3-6.8-3.3-2.6 0-4.9 1.2-6.5 3-0.7-0.8-1.5-1.5-2.3-2.1 2.2-2.4 5.3-3.9 8.8-3.9zm5.9 6.8q-2.9-0.7-5.9-0.7c-2 0-4 0.2-5.8 0.6 1.4-1.6 3.5-2.6 5.8-2.6 2.4 0 4.5 1 5.9 2.7zm-5.9 0.3c8.4 0 15.7 4.3 20 10.8q-1.6 0.4-3.1 0.9c-3.8-5.2-9.9-8.7-16.9-8.7-6.9 0-13 3.4-16.8 8.6q-1.6-0.6-3.2-0.9c4.3-6.4 11.7-10.7 20-10.7zm0 4c6.5 0 12.3 3.2 15.9 8.1q-1.4 0.6-2.7 1.3c-3.1-3.8-7.9-6.3-13.2-6.3-5.2 0-9.9 2.4-13 6.1q-1.4-0.7-2.8-1.3c3.6-4.8 9.3-7.9 15.8-7.9zm0 4.1c4.9 0 9.4 2.3 12.3 5.8q-1.3 0.8-2.5 1.8c-2.4-2.8-5.9-4.6-9.8-4.6-3.8 0-7.2 1.7-9.5 4.3q-1.3-0.9-2.6-1.7c2.9-3.4 7.3-5.6 12.1-5.6zm0 4.1c3.6 0 6.8 1.6 9 4.1q-1.2 1-2.2 2.1c-1.6-1.9-4.1-3.2-6.8-3.2-2.6 0-4.9 1.1-6.5 2.9q-1.1-1.1-2.3-2.1c2.2-2.3 5.3-3.8 8.8-3.8zm5.9 6.7q-2.9-0.7-5.9-0.7c-2 0-4 0.2-5.8 0.7 1.4-1.6 3.5-2.7 5.8-2.7 2.4 0 4.5 1.1 5.9 2.7zm238.2 0c1.5-1.6 3.5-2.7 5.9-2.7 2.3 0 4.5 1.1 5.9 2.7q-2.9-0.7-5.9-0.7c-2 0-4 0.2-5.9 0.7zm5.9-3.7c-2.6 0-4.9 1.1-6.6 2.9q-1-1.1-2.2-2.1c2.2-2.3 5.3-3.8 8.8-3.8 3.6 0 6.8 1.6 9 4.1q-1.2 1-2.2 2.1c-1.6-1.9-4.1-3.2-6.8-3.2zm0-4.1c-3.8 0-7.2 1.7-9.6 4.3q-1.2-0.9-2.5-1.7c2.9-3.4 7.2-5.6 12.1-5.6 4.9 0 9.3 2.3 12.3 5.8q-1.3 0.8-2.5 1.8c-2.4-2.8-5.9-4.6-9.8-4.6zm0-4c-5.2 0-9.9 2.4-13 6.1q-1.4-0.7-2.8-1.3c3.6-4.8 9.3-7.9 15.8-7.9 6.5 0 12.3 3.2 15.9 8.1q-1.4 0.6-2.8 1.3c-3.1-3.8-7.8-6.3-13.1-6.3zm0-4.1c-6.9 0-13 3.4-16.8 8.6q-1.6-0.6-3.2-0.9c4.3-6.4 11.7-10.7 20-10.7 8.4 0 15.7 4.3 20 10.8q-1.6 0.4-3.1 0.9c-3.8-5.2-10-8.7-16.9-8.7zm-5.8-3.3c1.4-1.7 3.4-2.7 5.8-2.7 2.3 0 4.5 1 5.9 2.7q-2.9-0.7-5.9-0.7-3 0-5.8 0.7zm5.8-3.8c-2.6 0-4.9 1.2-6.6 3q-1-1.1-2.2-2.1c2.2-2.4 5.3-3.9 8.8-3.9 3.6 0 6.8 1.6 9 4.2q-1.2 1-2.2 2.1c-1.6-2-4.1-3.3-6.8-3.3zm0-4c-3.8 0-7.2 1.6-9.6 4.3q-1.2-1-2.5-1.7c2.9-3.5 7.2-5.6 12.1-5.6 4.9 0 9.3 2.2 12.3 5.8q-1.3 0.8-2.5 1.7c-2.4-2.7-5.9-4.5-9.8-4.5zm0-4.1c-5.2 0-9.9 2.4-13 6.1q-1.4-0.7-2.8-1.2c3.6-4.8 9.3-7.9 15.8-7.9 6.5 0 12.3 3.2 15.9 8q-1.4 0.6-2.8 1.4c-3.1-3.9-7.8-6.4-13.1-6.4zm0-4c-6.9 0-13 3.4-16.8 8.5q-1.6-0.5-3.2-0.8c4.3-6.5 11.7-10.8 20-10.8 8.4 0 15.7 4.4 20 10.9q-1.6 0.3-3.1 0.9c-3.8-5.3-10-8.7-16.9-8.7zm-5.9-3.4c1.5-1.6 3.5-2.7 5.9-2.7 2.3 0 4.5 1.1 5.9 2.7q-2.9-0.7-5.9-0.7-3 0-5.9 0.7zm5.9-3.7c-2.6 0-4.9 1.1-6.6 2.9q-1-1.1-2.2-2.1c2.2-2.3 5.3-3.8 8.8-3.8 3.6 0 6.8 1.6 9 4.1q-1.2 1-2.2 2.2c-1.6-2-4.1-3.3-6.8-3.3zm12.3-1.3q-1.3 0.8-2.5 1.8c-2.4-2.8-5.9-4.6-9.8-4.6-3.8 0-7.2 1.7-9.6 4.3q-1.2-0.9-2.5-1.7m-0.9-0.5q-1.4-0.7-2.8-1.3m31.7 0.2q-1.4 0.6-2.8 1.3m-29.9-1.8q-1.6-0.6-3.2-0.9m40 0.1q-1.6 0.4-3.1 0.9m-287.3-2.1q-0.4 0.4-0.7 0.9-1.8-0.2-3.6-0.2-2.1 0-4.2 0.3-0.2-0.4-0.5-0.8m4.7 1.5c7 0 13.4 3.1 17.8 7.9q-1.6 0.5-3.2 1.1c-3.7-3.7-8.9-6-14.6-6-5.8 0-11.1 2.4-14.8 6.2q-1.5-0.7-3.1-1.2c4.4-4.9 10.8-8 17.9-8zm0 4c5.3 0 10.1 2.1 13.6 5.5q-1.4 0.7-2.7 1.6c-3-2.5-6.8-4-10.9-4-4.3 0-8.2 1.6-11.2 4.2q-1.3-0.9-2.7-1.6c3.6-3.5 8.5-5.7 13.9-5.7zm0 4.1c3.8 0 7.3 1.4 10 3.6q-1.2 0.9-2.4 2c-2.1-1.6-4.7-2.6-7.6-2.6-3 0-5.8 1.1-8 2.8q-1.1-1-2.3-2c2.8-2.4 6.4-3.8 10.3-3.8zm0 4.1c2.6 0 4.9 0.8 6.9 2.2q-1.1 1.1-2 2.3c-1.4-1-3.1-1.5-4.9-1.5-2 0-3.8 0.7-5.3 1.8q-0.9-1.2-2-2.3c2.1-1.6 4.6-2.5 7.3-2.5zm0 4c1.6 0 3.1 0.5 4.3 1.3q-0.4 0.5-0.7 1-1.8-0.3-3.6-0.3-2.1 0-4.2 0.4-0.2-0.4-0.5-0.8c1.3-1 2.9-1.6 4.7-1.6zm0 3c7 0 13.4 3.1 17.8 8q-1.6 0.4-3.2 1.1c-3.7-3.7-8.9-6-14.6-6-5.8 0-11.1 2.4-14.8 6.2q-1.5-0.7-3.1-1.2c4.4-4.9 10.8-8.1 17.9-8.1zm0 4.1c5.3 0 10.1 2.1 13.6 5.4q-1.4 0.8-2.7 1.6c-3-2.5-6.8-4-10.9-4-4.3 0-8.2 1.6-11.2 4.3q-1.3-0.9-2.7-1.6c3.6-3.5 8.5-5.7 13.9-5.7zm0 4.1c3.8 0 7.3 1.3 10 3.5q-1.2 1-2.4 2c-2.1-1.6-4.7-2.5-7.6-2.5-3 0-5.8 1-8 2.8q-1.1-1.1-2.3-2c2.8-2.4 6.4-3.8 10.3-3.8zm0 4c2.6 0 4.9 0.8 6.9 2.2q-1.1 1.1-2 2.3c-1.4-0.9-3.1-1.5-4.9-1.5-2 0-3.8 0.7-5.3 1.8q-0.9-1.2-2-2.3c2.1-1.6 4.6-2.5 7.3-2.5zm0 4.1c1.6 0 3.1 0.4 4.3 1.3q-0.4 0.4-0.7 0.9-1.8-0.2-3.6-0.2-2.1 0-4.2 0.3-0.2-0.4-0.5-0.8c1.3-0.9 2.9-1.5 4.7-1.5zm0 3c7 0 13.4 3 17.8 7.9q-1.6 0.5-3.2 1.1c-3.7-3.7-8.9-6-14.6-6-5.8 0-11.1 2.4-14.8 6.2q-1.5-0.7-3.1-1.2c4.4-4.9 10.8-8 17.9-8zm0 4c5.3 0 10.1 2.1 13.6 5.5q-1.4 0.7-2.7 1.6c-3-2.5-6.8-4-10.9-4-4.3 0-8.2 1.6-11.2 4.2q-1.3-0.9-2.7-1.6c3.6-3.5 8.5-5.7 13.9-5.7zm0 4.1c3.8 0 7.3 1.3 10 3.6q-1.2 0.9-2.4 2c-2.1-1.6-4.7-2.6-7.6-2.6-3 0-5.8 1.1-8 2.8q-1.1-1-2.3-2c2.8-2.4 6.4-3.8 10.3-3.8zm0 4.1c2.6 0 4.9 0.8 6.9 2.2q-1.1 1.1-2 2.3c-1.4-1-3.1-1.5-4.9-1.5-2 0-3.8 0.7-5.3 1.8q-0.9-1.2-2-2.3c2.1-1.6 4.6-2.5 7.3-2.5zm0 4c1.6 0 3.1 0.5 4.3 1.3q-0.4 0.5-0.7 1-1.8-0.3-3.6-0.3-2.1 0-4.2 0.4-0.2-0.4-0.5-0.8c1.3-1 2.9-1.6 4.7-1.6zm303.6 2.3q-1.8-0.3-3.6-0.3-2.2 0-4.2 0.4-0.3-0.4-0.5-0.8c1.3-1 2.9-1.6 4.7-1.6 1.6 0 3 0.5 4.3 1.3q-0.4 0.5-0.7 1zm-3.6-3.3c-2 0-3.8 0.7-5.3 1.8q-0.9-1.2-2-2.3c2-1.6 4.5-2.5 7.3-2.5 2.6 0 4.9 0.8 6.9 2.2q-1.1 1.1-2 2.3c-1.4-1-3.1-1.5-4.9-1.5zm0-4.1c-3 0-5.8 1.1-8 2.8q-1.1-1-2.3-2c2.7-2.3 6.3-3.8 10.3-3.8 3.8 0 7.3 1.3 10 3.6q-1.3 0.9-2.4 2c-2.1-1.6-4.8-2.6-7.6-2.6zm0-4c-4.3 0-8.2 1.6-11.2 4.2q-1.3-0.9-2.7-1.6c3.6-3.5 8.5-5.7 13.9-5.7 5.3 0 10.1 2.1 13.6 5.5q-1.4 0.7-2.7 1.6c-3-2.5-6.8-4-10.9-4zm0-4.1c-5.8 0-11.1 2.4-14.9 6.2q-1.5-0.7-3-1.2c4.4-4.9 10.8-8 17.9-8 7 0 13.4 3 17.8 7.9q-1.7 0.5-3.2 1.1c-3.8-3.7-8.9-6-14.6-6zm3.6-3.8q-1.8-0.2-3.6-0.2-2.2 0-4.2 0.3-0.3-0.4-0.5-0.8c1.3-0.9 2.9-1.5 4.7-1.5 1.6 0 3 0.4 4.3 1.3q-0.4 0.4-0.7 0.9zm-3.6-3.3c-2 0-3.8 0.7-5.3 1.8q-0.9-1.2-2-2.3c2-1.6 4.5-2.5 7.3-2.5 2.6 0 4.9 0.8 6.9 2.2q-1.1 1.1-2 2.3c-1.4-0.9-3.1-1.5-4.9-1.5zm0-4c-3 0-5.8 1-8 2.8q-1.1-1.1-2.3-2c2.7-2.4 6.3-3.8 10.3-3.8 3.8 0 7.3 1.3 10 3.5q-1.3 1-2.4 2c-2.1-1.6-4.8-2.5-7.6-2.5zm0-4.1c-4.3 0-8.2 1.6-11.2 4.3q-1.3-0.9-2.7-1.6c3.6-3.5 8.5-5.7 13.9-5.7 5.3 0 10.1 2.1 13.6 5.5q-1.4 0.7-2.7 1.5c-3-2.5-6.8-4-10.9-4zm0-4c-5.8 0-11.1 2.4-14.9 6.2q-1.5-0.7-3-1.2c4.4-4.9 10.8-8.1 17.9-8.1 7 0 13.4 3.1 17.8 8q-1.7 0.4-3.2 1.1c-3.8-3.7-8.9-6-14.6-6zm3.6-3.8q-1.8-0.3-3.6-0.3-2.2 0-4.2 0.4-0.3-0.4-0.5-0.8c1.3-1 2.9-1.6 4.7-1.6 1.6 0 3 0.5 4.3 1.3q-0.4 0.5-0.7 1zm-3.6-3.3c-2 0-3.8 0.7-5.3 1.8q-0.9-1.2-2-2.3c2-1.6 4.5-2.5 7.3-2.5 2.6 0 4.9 0.8 6.9 2.2q-1.1 1.1-2 2.3c-1.4-1-3.1-1.5-4.9-1.5zm0-4.1c-3 0-5.8 1.1-8 2.8q-1.1-1-2.3-2c2.7-2.3 6.3-3.8 10.3-3.8 3.8 0 7.3 1.4 10 3.6q-1.3 0.9-2.4 2c-2.1-1.6-4.8-2.6-7.6-2.6zm0-4c-4.3 0-8.2 1.6-11.2 4.2q-1.3-0.9-2.7-1.6c3.6-3.5 8.5-5.7 13.9-5.7 5.3 0 10.1 2.1 13.6 5.5q-1.4 0.7-2.7 1.6c-3-2.5-6.8-4-10.9-4zm0-4.1c-5.8 0-11.1 2.4-14.9 6.2q-1.5-0.7-3-1.2c4.4-4.9 10.8-8 17.9-8 7 0 13.4 3.1 17.8 7.9q-1.7 0.5-3.2 1.1c-3.8-3.7-8.9-6-14.6-6zm4.3-4.7q-0.4 0.4-0.7 0.9-1.8-0.2-3.6-0.2-2.2 0-4.2 0.3-0.3-0.4-0.5-0.8m-300.6 1q-1.6 0.4-3.1 0.9m-33.7-0.1q-1.6-0.6-3.2-0.9m36 1.4q-1.5 0.6-2.8 1.3m-26.2-0.2q-1.4-0.7-2.8-1.3m28.1 2q-1.3 0.8-2.5 1.8c-2.4-2.8-5.9-4.6-9.8-4.6-3.8 0-7.2 1.7-9.5 4.3q-1.3-0.9-2.6-1.7m12.1-1.5c3.6 0 6.8 1.6 9 4.1q-1.1 1-2.2 2.2c-1.6-2-4.1-3.3-6.8-3.3-2.6 0-4.9 1.1-6.5 2.9-0.7-0.7-1.5-1.4-2.3-2.1 2.2-2.3 5.3-3.8 8.8-3.8zm5.9 6.7q-2.8-0.7-5.9-0.7c-2 0-4 0.3-5.8 0.7 1.4-1.6 3.5-2.7 5.8-2.7 2.4 0 4.5 1.1 5.9 2.7zm-5.9 0.3c8.4 0 15.7 4.4 20 10.9q-1.6 0.3-3.1 0.9c-3.8-5.3-9.9-8.7-16.9-8.7-6.9 0-13 3.4-16.8 8.5q-1.6-0.5-3.2-0.8c4.3-6.5 11.7-10.8 20-10.8zm0 4.1c6.5 0 12.3 3.2 16 8q-1.5 0.6-2.8 1.4c-3.1-3.9-7.9-6.4-13.2-6.4-5.2 0-9.9 2.4-13 6.1q-1.4-0.7-2.8-1.2c3.6-4.8 9.3-7.9 15.8-7.9zm0 4.1c4.9 0 9.4 2.2 12.3 5.8q-1.3 0.8-2.5 1.7c-2.4-2.7-5.9-4.5-9.8-4.5-3.8 0-7.2 1.6-9.5 4.3q-1.3-1-2.6-1.7c2.9-3.5 7.3-5.6 12.1-5.6zm0 4c3.6 0 6.8 1.6 9 4.2q-1.1 1-2.2 2.1c-1.6-2-4.1-3.3-6.8-3.3-2.6 0-4.9 1.2-6.5 3-0.7-0.8-1.5-1.5-2.3-2.1 2.2-2.4 5.3-3.9 8.8-3.9zm5.9 6.8q-2.8-0.7-5.9-0.7c-2 0-4 0.2-5.8 0.6 1.4-1.6 3.5-2.6 5.8-2.6 2.4 0 4.5 1 5.9 2.7zm-5.9 0.3c8.4 0 15.7 4.3 20 10.8q-1.6 0.4-3.1 0.9c-3.8-5.2-9.9-8.7-16.9-8.7-6.9 0-13 3.4-16.8 8.6q-1.6-0.6-3.2-0.9c4.3-6.4 11.7-10.7 20-10.7zm0 4c6.5 0 12.3 3.2 16 8.1q-1.5 0.6-2.8 1.3c-3.1-3.8-7.9-6.3-13.2-6.3-5.2 0-9.9 2.4-13 6.1q-1.4-0.7-2.8-1.3c3.6-4.8 9.3-7.9 15.8-7.9zm0 4.1c4.9 0 9.4 2.3 12.3 5.8q-1.3 0.8-2.5 1.8c-2.4-2.8-5.9-4.6-9.8-4.6-3.8 0-7.2 1.7-9.6 4.3q-1.2-0.9-2.5-1.7c2.9-3.4 7.3-5.6 12.1-5.6zm0 4.1c3.6 0 6.8 1.6 9 4.1q-1.1 1-2.2 2.1c-1.6-1.9-4.1-3.2-6.8-3.2-2.6 0-4.9 1.1-6.5 2.9-0.7-0.7-1.5-1.4-2.3-2.1 2.2-2.3 5.3-3.8 8.8-3.8zm5.9 6.7q-2.8-0.7-5.9-0.7-3 0-5.8 0.7c1.4-1.6 3.5-2.7 5.8-2.7 2.4 0 4.5 1.1 5.9 2.7zm-5.9 0.3c8.4 0 15.7 4.4 20 10.9q-1.6 0.3-3.1 0.9c-3.8-5.3-9.9-8.7-16.9-8.7-6.9 0-13 3.3-16.8 8.5q-1.6-0.5-3.2-0.8c4.3-6.5 11.7-10.8 20-10.8zm0 4.1c6.5 0 12.3 3.2 16 8q-1.5 0.6-2.8 1.4c-3.1-3.9-7.9-6.4-13.2-6.4-5.2 0-9.9 2.4-13 6.1q-1.4-0.7-2.8-1.2c3.6-4.8 9.3-7.9 15.8-7.9zm0 4c4.9 0 9.4 2.3 12.3 5.9q-1.3 0.8-2.5 1.7c-2.4-2.7-5.9-4.5-9.8-4.5-3.8 0-7.2 1.6-9.5 4.3q-1.3-1-2.6-1.8c2.9-3.4 7.3-5.6 12.1-5.6zm0 4.1c3.6 0 6.8 1.6 9 4.2q-1.1 1-2.2 2.1c-1.6-2-4.1-3.3-6.8-3.3-2.6 0-4.9 1.2-6.5 3-0.7-0.8-1.5-1.5-2.3-2.1 2.2-2.4 5.3-3.9 8.8-3.9zm5.9 6.8q-2.8-0.7-5.9-0.7c-2 0-4 0.2-5.8 0.6 1.4-1.6 3.5-2.7 5.8-2.7 2.4 0 4.5 1.1 5.9 2.8zm338.2-0.1c1.5-1.6 3.5-2.7 5.9-2.7 2.3 0 4.5 1.1 5.9 2.8q-2.9-0.7-5.9-0.7-3 0-5.9 0.6zm5.9-3.7c-2.6 0-4.9 1.2-6.6 3q-1-1.1-2.2-2.1c2.2-2.4 5.3-3.9 8.8-3.9 3.6 0 6.8 1.6 9 4.2q-1.2 1-2.2 2.1c-1.6-2-4.1-3.3-6.8-3.3zm0-4c-3.8 0-7.2 1.6-9.6 4.3q-1.2-1-2.5-1.8c2.9-3.4 7.2-5.6 12.1-5.6 4.9 0 9.3 2.3 12.3 5.9q-1.3 0.8-2.5 1.7c-2.4-2.7-5.9-4.5-9.8-4.5zm0-4.1c-5.2 0-9.9 2.4-13 6.1q-1.4-0.7-2.9-1.2c3.7-4.8 9.4-7.9 15.9-7.9 6.5 0 12.3 3.2 15.9 8q-1.4 0.6-2.8 1.4c-3.1-3.9-7.8-6.4-13.1-6.4zm0-4c-6.9 0-13 3.3-16.8 8.5q-1.6-0.5-3.2-0.8c4.3-6.5 11.6-10.8 20-10.8 8.3 0 15.7 4.4 20 10.9q-1.6 0.3-3.1 0.9c-3.8-5.3-10-8.7-16.9-8.7zm-5.9-3.4c1.5-1.6 3.5-2.7 5.9-2.7 2.3 0 4.5 1.1 5.9 2.7q-2.9-0.7-5.9-0.7-3 0-5.9 0.7zm5.9-3.7c-2.6 0-4.9 1.1-6.6 2.9q-1-1.1-2.2-2.1c2.2-2.3 5.3-3.8 8.8-3.8 3.6 0 6.8 1.6 9 4.1q-1.2 1-2.2 2.1c-1.6-1.9-4.1-3.2-6.8-3.2zm0-4.1c-3.8 0-7.2 1.7-9.6 4.3q-1.2-0.9-2.5-1.7c2.9-3.4 7.2-5.6 12.1-5.6 4.9 0 9.3 2.3 12.3 5.8q-1.3 0.8-2.5 1.8c-2.4-2.8-5.9-4.6-9.8-4.6zm0-4c-5.2 0-9.9 2.4-13 6.1q-1.4-0.7-2.9-1.3c3.7-4.8 9.4-7.9 15.9-7.9 6.5 0 12.3 3.2 15.9 8.1q-1.4 0.6-2.8 1.3c-3.1-3.8-7.8-6.3-13.1-6.3zm0-4.1c-6.9 0-13 3.4-16.8 8.6q-1.6-0.6-3.2-0.9c4.3-6.4 11.6-10.7 20-10.7 8.3 0 15.7 4.3 20 10.8q-1.6 0.4-3.1 0.9c-3.8-5.2-10-8.7-16.9-8.7zm-5.9-3.4c1.5-1.6 3.5-2.6 5.9-2.6 2.3 0 4.5 1 5.9 2.7q-2.9-0.7-5.9-0.7-3 0-5.9 0.6zm5.9-3.7c-2.6 0-4.9 1.2-6.6 3q-1-1.1-2.2-2.1c2.2-2.4 5.3-3.9 8.8-3.9 3.6 0 6.8 1.6 9 4.2q-1.2 1-2.2 2.1c-1.6-2-4.1-3.3-6.8-3.3zm0-4c-3.8 0-7.2 1.6-9.6 4.3q-1.2-1-2.5-1.7c2.9-3.5 7.2-5.6 12.1-5.6 4.9 0 9.3 2.2 12.3 5.8q-1.3 0.8-2.5 1.7c-2.4-2.7-5.9-4.5-9.8-4.5zm0-4.1c-5.2 0-9.9 2.4-13 6.1q-1.4-0.7-2.9-1.2c3.7-4.8 9.4-7.9 15.9-7.9 6.5 0 12.3 3.2 15.9 8q-1.4 0.6-2.8 1.4c-3.1-3.9-7.8-6.4-13.1-6.4zm0-4c-6.9 0-13 3.4-16.8 8.5q-1.6-0.5-3.2-0.8c4.3-6.5 11.6-10.8 20-10.8 8.3 0 15.7 4.4 20 10.9q-1.6 0.3-3.1 0.9c-3.8-5.3-10-8.7-16.9-8.7zm-5.9-3.4c1.5-1.6 3.5-2.7 5.9-2.7 2.3 0 4.5 1.1 5.9 2.7q-2.9-0.7-5.9-0.7-3 0-5.9 0.7zm5.9-3.7c-2.6 0-4.9 1.1-6.6 2.9q-1-1.1-2.2-2.1c2.2-2.3 5.3-3.8 8.8-3.8 3.6 0 6.8 1.6 9 4.1q-1.2 1-2.2 2.2c-1.6-2-4.1-3.3-6.8-3.3zm12.3-1.3q-1.3 0.8-2.5 1.8c-2.4-2.8-5.9-4.6-9.8-4.6-3.8 0-7.2 1.7-9.6 4.3q-1.2-0.9-2.5-1.7m-0.9-0.5q-1.4-0.7-2.9-1.3m31.8 0.2q-1.4 0.6-2.8 1.3m-29.9-1.8q-1.6-0.6-3.2-0.9m40 0.1q-1.6 0.4-3.1 0.9m-387.3-2.1q-0.4 0.4-0.7 0.9-1.8-0.2-3.6-0.2-2.1 0-4.2 0.3-0.2-0.4-0.5-0.8m4.7 1.5c7 0 13.4 3.1 17.8 7.9q-1.6 0.5-3.2 1.1c-3.7-3.7-8.9-6-14.6-6-5.8 0-11.1 2.4-14.8 6.2q-1.5-0.7-3.1-1.2c4.4-4.9 10.8-8 17.9-8zm0 4c5.3 0 10.1 2.1 13.7 5.5q-1.5 0.7-2.8 1.6c-3-2.5-6.8-4-10.9-4-4.3 0-8.2 1.6-11.2 4.2q-1.3-0.9-2.7-1.6c3.6-3.5 8.5-5.7 13.9-5.7zm0 4.1c3.8 0 7.3 1.4 10 3.6q-1.2 0.9-2.4 2c-2.1-1.6-4.7-2.6-7.6-2.6-3 0-5.8 1.1-8 2.8q-1.1-1-2.3-2c2.8-2.4 6.4-3.8 10.3-3.8zm0 4.1c2.6 0 4.9 0.8 6.9 2.2q-1.1 1.1-2 2.3c-1.4-1-3.1-1.5-4.9-1.5-2 0-3.8 0.7-5.3 1.8q-0.9-1.2-2-2.3c2.1-1.6 4.6-2.5 7.3-2.5zm0 4c1.6 0 3.1 0.5 4.3 1.3q-0.4 0.5-0.7 1-1.8-0.3-3.6-0.3-2.1 0-4.2 0.4-0.2-0.4-0.5-0.8c1.3-1 2.9-1.6 4.7-1.6zm0 3c7 0 13.3 3.1 17.7 8-1 0.2-2 0.6-3.1 1.1-3.7-3.7-8.9-6-14.6-6-5.8 0-11.1 2.4-14.8 6.2q-1.5-0.7-3.1-1.2c4.4-4.9 10.8-8.1 17.9-8.1zm0 4.1c5.3 0 10.1 2.1 13.7 5.4q-1.5 0.8-2.8 1.6c-3-2.5-6.8-4-10.9-4-4.3 0-8.2 1.6-11.2 4.3q-1.3-0.9-2.7-1.6c3.6-3.5 8.5-5.7 13.9-5.7zm0 4.1c3.8 0 7.3 1.3 10 3.5q-1.2 1-2.4 2c-2.1-1.6-4.7-2.5-7.6-2.5-3 0-5.8 1-8 2.8q-1.1-1.1-2.3-2c2.8-2.4 6.4-3.8 10.3-3.8zm0 4c2.6 0 4.9 0.8 6.9 2.2q-1.1 1.1-2 2.3c-1.4-0.9-3.1-1.5-4.9-1.5-2 0-3.8 0.7-5.3 1.8q-0.9-1.2-2-2.3c2.1-1.6 4.6-2.5 7.3-2.5zm0 4.1c1.6 0 3.1 0.4 4.3 1.3q-0.4 0.4-0.7 0.9-1.8-0.2-3.6-0.2-2.1 0-4.2 0.3-0.2-0.4-0.5-0.8c1.3-0.9 2.9-1.5 4.7-1.5zm0 3c7 0 13.4 3 17.8 7.9q-1.6 0.5-3.2 1.1c-3.7-3.7-8.9-6-14.6-6-5.8 0-11.1 2.4-14.8 6.2q-1.5-0.7-3.1-1.2c4.4-4.9 10.8-8 17.9-8zm0 4c5.3 0 10.1 2.1 13.7 5.5q-1.5 0.7-2.8 1.6c-3-2.5-6.8-4-10.9-4-4.3 0-8.2 1.6-11.2 4.2q-1.3-0.9-2.7-1.6c3.6-3.5 8.5-5.7 13.9-5.7zm0 4.1c3.8 0 7.3 1.3 10 3.6q-1.2 0.9-2.4 2c-2.1-1.6-4.7-2.6-7.6-2.6-3 0-5.8 1.1-8 2.8q-1.1-1-2.3-2c2.8-2.4 6.4-3.8 10.3-3.8zm0 4.1c2.6 0 4.9 0.8 6.9 2.2q-1.1 1.1-2 2.3c-1.4-1-3.1-1.5-4.9-1.5-2 0-3.8 0.7-5.3 1.8q-0.9-1.2-2-2.3c2.1-1.6 4.6-2.5 7.3-2.5zm0 4c1.6 0 3.1 0.5 4.3 1.3q-0.4 0.5-0.7 1-1.8-0.3-3.6-0.3-2.1 0-4.2 0.4-0.2-0.4-0.5-0.8c1.3-1 2.9-1.6 4.7-1.6zm0 3c7 0 13.4 3.1 17.8 8q-1.6 0.4-3.2 1.1c-3.7-3.7-8.9-6-14.6-6-5.8 0-11.1 2.4-14.8 6.2q-1.5-0.7-3.1-1.2c4.4-4.9 10.8-8.1 17.9-8.1zm0 4.1c5.3 0 10.1 2.1 13.7 5.4q-1.5 0.8-2.8 1.6c-3-2.5-6.8-4-10.9-4-4.3 0-8.2 1.6-11.2 4.3q-1.3-0.9-2.7-1.7c3.6-3.4 8.5-5.6 13.9-5.6zm0 4c3.8 0 7.3 1.4 10 3.6q-1.2 1-2.4 2c-2.1-1.6-4.7-2.5-7.6-2.5-3 0-5.8 1-8 2.8q-1.1-1.1-2.3-2c2.8-2.4 6.4-3.9 10.3-3.9zm0 4.1c2.6 0 4.9 0.8 6.9 2.2q-1.1 1.1-2 2.3c-1.4-0.9-3.1-1.5-4.9-1.5-2 0-3.8 0.7-5.3 1.8q-0.9-1.2-2-2.3c2.1-1.6 4.6-2.5 7.3-2.5zm0 4.1c1.6 0 3.1 0.4 4.3 1.2q-0.4 0.5-0.7 1-1.8-0.2-3.6-0.2-2.1 0-4.2 0.3-0.2-0.4-0.5-0.8c1.3-1 2.9-1.5 4.7-1.5zm403.6 2.2q-1.8-0.2-3.6-0.2-2.2 0-4.2 0.3-0.3-0.4-0.5-0.8c1.3-1 2.9-1.5 4.7-1.5 1.6 0 3 0.4 4.3 1.2q-0.4 0.5-0.7 1zm-3.6-3.3c-2 0-3.8 0.7-5.3 1.8q-0.9-1.2-2-2.3c2-1.6 4.5-2.5 7.3-2.5 2.5 0 4.9 0.8 6.9 2.2q-1.1 1.1-2 2.3c-1.4-0.9-3.1-1.5-4.9-1.5zm0-4c-3 0-5.8 1-8 2.8q-1.1-1.1-2.3-2c2.7-2.4 6.3-3.9 10.3-3.9 3.8 0 7.3 1.4 10 3.6q-1.3 1-2.4 2c-2.1-1.6-4.8-2.5-7.6-2.5zm0-4.1c-4.3 0-8.2 1.6-11.2 4.3q-1.3-0.9-2.7-1.7c3.6-3.4 8.5-5.6 13.9-5.6 5.3 0 10.1 2.1 13.6 5.4q-1.4 0.8-2.7 1.6c-3-2.5-6.8-4-10.9-4zm0-4c-5.8 0-11.1 2.4-14.9 6.2q-1.4-0.7-3-1.2c4.4-4.9 10.8-8.1 17.9-8.1 7 0 13.4 3.1 17.8 8q-1.7 0.4-3.2 1.1c-3.8-3.7-8.9-6-14.6-6zm3.6-3.8q-1.8-0.3-3.6-0.3-2.2 0-4.2 0.4-0.3-0.4-0.5-0.8c1.3-1 2.9-1.6 4.7-1.6 1.6 0 3 0.5 4.3 1.3q-0.4 0.5-0.7 1zm-3.6-3.3c-2 0-3.8 0.7-5.3 1.8q-0.9-1.2-2-2.3c2-1.6 4.5-2.5 7.3-2.5 2.5 0 4.9 0.8 6.9 2.2q-1.1 1.1-2 2.3c-1.4-1-3.1-1.5-4.9-1.5zm0-4.1c-3 0-5.8 1.1-8 2.8q-1.1-1-2.3-2c2.7-2.3 6.3-3.8 10.3-3.8 3.8 0 7.3 1.3 10 3.6q-1.3 0.9-2.4 2c-2.1-1.6-4.8-2.6-7.6-2.6zm0-4c-4.3 0-8.2 1.6-11.2 4.2q-1.3-0.9-2.7-1.6c3.6-3.5 8.5-5.7 13.9-5.7 5.3 0 10.1 2.1 13.6 5.5q-1.4 0.7-2.7 1.6c-3-2.5-6.8-4-10.9-4zm0-4.1c-5.8 0-11.1 2.4-14.9 6.2q-1.4-0.7-3-1.2c4.4-4.9 10.8-8 17.9-8 7 0 13.4 3 17.8 7.9q-1.7 0.5-3.2 1.1c-3.8-3.7-8.9-6-14.6-6zm3.6-3.8q-1.8-0.2-3.6-0.2-2.2 0-4.2 0.3-0.3-0.4-0.5-0.8c1.3-0.9 2.9-1.5 4.7-1.5 1.6 0 3 0.4 4.3 1.3q-0.4 0.4-0.7 0.9zm-3.6-3.3c-2 0-3.8 0.7-5.3 1.8q-0.9-1.2-2-2.3c2-1.6 4.5-2.5 7.3-2.5 2.5 0 4.9 0.8 6.9 2.2q-1.1 1.1-2 2.3c-1.4-0.9-3.1-1.5-4.9-1.5zm0-4c-3 0-5.8 1-8 2.8q-1.1-1.1-2.3-2c2.7-2.4 6.3-3.8 10.3-3.8 3.8 0 7.3 1.3 10 3.5q-1.3 1-2.4 2c-2.1-1.6-4.8-2.5-7.6-2.5zm0-4.1c-4.3 0-8.2 1.6-11.2 4.3q-1.3-0.9-2.7-1.6c3.6-3.5 8.5-5.7 13.9-5.7 5.3 0 10.1 2.1 13.6 5.5q-1.4 0.7-2.7 1.5c-3-2.5-6.8-4-10.9-4zm0-4c-5.8 0-11.1 2.4-14.9 6.2q-1.4-0.7-3-1.2c4.4-4.9 10.8-8.1 17.9-8.1 7 0 13.4 3.1 17.8 8q-1.7 0.4-3.2 1.1c-3.8-3.7-8.9-6-14.6-6zm3.6-3.8q-1.8-0.3-3.6-0.3-2.2 0-4.2 0.4-0.3-0.4-0.5-0.8c1.3-1 2.9-1.6 4.7-1.6 1.6 0 3 0.5 4.3 1.3q-0.4 0.5-0.7 1zm-3.6-3.3c-2 0-3.8 0.7-5.3 1.8q-0.9-1.2-2-2.3c2-1.6 4.5-2.5 7.3-2.5 2.5 0 4.9 0.8 6.9 2.2q-1.1 1.1-2 2.3c-1.4-1-3.1-1.5-4.9-1.5zm0-4.1c-3 0-5.8 1.1-8 2.8q-1.1-1-2.3-2c2.7-2.3 6.3-3.8 10.3-3.8 3.8 0 7.3 1.4 10 3.6q-1.3 0.9-2.4 2c-2.1-1.6-4.8-2.6-7.6-2.6zm0-4c-4.3 0-8.2 1.6-11.2 4.2q-1.3-0.9-2.7-1.6c3.6-3.5 8.5-5.7 13.9-5.7 5.3 0 10.1 2.1 13.6 5.5q-1.4 0.7-2.7 1.6c-3-2.5-6.8-4-10.9-4zm0-4.1c-5.8 0-11.1 2.4-14.9 6.2q-1.4-0.7-3-1.2c4.4-4.9 10.8-8 17.9-8 7 0 13.4 3.1 17.8 7.9q-1.7 0.5-3.2 1.1c-3.8-3.7-8.9-6-14.6-6zm37-0.4q-1.4 0.8-2.5 1.8c-2.4-2.8-5.9-4.6-9.8-4.6-3.8 0-7.2 1.7-9.6 4.3q-1.2-0.9-2.5-1.7m-0.9-0.5q-1.4-0.7-2.9-1.3m31.8 0.2q-1.4 0.6-2.8 1.3m-30-1.8q-1.5-0.6-3.1-0.9m40 0.1q-1.6 0.4-3.1 0.9m-446.9-0.9q-1.6 0.4-3.1 0.9m-33.7-0.1q-1.6-0.6-3.2-0.9m36 1.4q-1.5 0.6-2.8 1.3m-26.2-0.2q-1.4-0.7-2.8-1.3m28.1 2q-1.3 0.8-2.5 1.8c-2.4-2.8-5.9-4.6-9.8-4.6-3.8 0-7.2 1.7-9.5 4.3q-1.3-0.9-2.6-1.7m3.3 2.3c2.2-2.3 5.3-3.8 8.8-3.8 3.6 0 6.8 1.6 9 4.1q-1.2 1-2.2 2.2c-1.6-2-4.1-3.3-6.8-3.3-2.6 0-4.9 1.1-6.5 2.9q-1.1-1.1-2.3-2.1zm14.7 2.9q-2.8-0.7-5.9-0.7-3 0-5.8 0.7c1.4-1.6 3.5-2.7 5.8-2.7 2.4 0 4.5 1.1 5.9 2.7zm-25.9 11.1c4.3-6.5 11.7-10.8 20-10.8 8.4 0 15.7 4.4 20 10.9q-1.6 0.3-3.1 0.9c-3.8-5.3-9.9-8.7-16.9-8.7-6.9 0-13 3.4-16.8 8.5q-1.6-0.5-3.2-0.8zm4.2 1.2c3.6-4.8 9.3-7.9 15.8-7.9 6.5 0 12.3 3.2 16 8q-1.5 0.6-2.8 1.4c-3.1-3.9-7.9-6.4-13.2-6.4-5.2 0-9.9 2.4-13 6.1q-1.4-0.7-2.8-1.2zm3.7 1.8c2.9-3.5 7.3-5.6 12.1-5.6 4.9 0 9.4 2.2 12.3 5.8q-1.3 0.8-2.5 1.7c-2.4-2.7-5.9-4.5-9.8-4.5-3.8 0-7.2 1.6-9.5 4.3q-1.3-1-2.6-1.7zm3.3 2.3c2.2-2.4 5.3-3.9 8.8-3.9 3.6 0 6.8 1.6 9 4.2q-1.2 1-2.2 2.1c-1.6-2-4.1-3.3-6.8-3.3-2.6 0-4.9 1.2-6.5 3q-1.1-1.1-2.3-2.1zm14.7 2.9q-2.8-0.7-5.9-0.7-3 0-5.8 0.6c1.4-1.6 3.5-2.6 5.8-2.6 2.4 0 4.5 1 5.9 2.7zm-25.9 11c4.3-6.4 11.7-10.7 20-10.7 8.4 0 15.7 4.3 20 10.8q-1.6 0.4-3.1 0.9c-3.8-5.2-9.9-8.7-16.9-8.7-6.9 0-13 3.4-16.8 8.6q-1.6-0.6-3.2-0.9zm4.2 1.2c3.6-4.8 9.3-7.9 15.8-7.9 6.5 0 12.3 3.2 16 8.1q-1.5 0.6-2.8 1.3c-3.1-3.8-7.9-6.3-13.2-6.3-5.2 0-9.9 2.4-13 6.1q-1.4-0.7-2.8-1.3zm3.7 1.8c2.9-3.4 7.3-5.6 12.1-5.6 4.9 0 9.4 2.3 12.3 5.8q-1.3 0.8-2.5 1.8c-2.4-2.8-5.9-4.6-9.8-4.6-3.8 0-7.2 1.7-9.5 4.3q-1.3-0.9-2.6-1.7zm3.3 2.3c2.2-2.3 5.3-3.8 8.8-3.8 3.6 0 6.8 1.6 9 4.1q-1.2 1-2.2 2.1c-1.6-1.9-4.1-3.2-6.8-3.2-2.6 0-4.9 1.1-6.5 2.9q-1.1-1.1-2.3-2.1zm14.7 2.9q-2.8-0.7-5.9-0.7-3 0-5.8 0.7c1.4-1.6 3.5-2.7 5.8-2.7 2.4 0 4.5 1.1 5.9 2.7zm-25.9 11.1c4.3-6.5 11.7-10.8 20-10.8 8.4 0 15.7 4.4 20 10.9q-1.6 0.3-3.1 0.9c-3.8-5.3-9.9-8.7-16.9-8.7-6.9 0-13 3.3-16.8 8.5q-1.6-0.5-3.2-0.8zm4.2 1.2c3.6-4.8 9.3-7.9 15.8-7.9 6.5 0 12.3 3.2 16 8q-1.5 0.6-2.8 1.4c-3.1-3.9-7.9-6.4-13.2-6.4-5.2 0-9.9 2.4-13 6.1q-1.4-0.7-2.8-1.2zm3.7 1.7c2.9-3.4 7.3-5.6 12.1-5.6 4.9 0 9.4 2.3 12.3 5.9q-1.3 0.8-2.5 1.7c-2.4-2.7-5.9-4.5-9.8-4.5-3.8 0-7.2 1.6-9.5 4.3q-1.3-1-2.6-1.8zm3.3 2.4c2.2-2.4 5.3-3.9 8.8-3.9 3.6 0 6.8 1.6 9 4.2q-1.2 1-2.2 2.1c-1.6-2-4.1-3.3-6.8-3.3-2.6 0-4.9 1.2-6.5 3q-1.1-1.1-2.3-2.1zm14.7 2.9q-2.8-0.7-5.9-0.7-3 0-5.8 0.6c1.4-1.6 3.5-2.7 5.8-2.7 2.4 0 4.5 1.1 5.9 2.8zm-25.9 11c4.3-6.4 11.7-10.7 20-10.7 8.4 0 15.7 4.3 20 10.8q-1.6 0.4-3.1 0.9c-3.8-5.2-9.9-8.7-16.9-8.7-6.9 0-13 3.4-16.8 8.5q-1.6-0.5-3.2-0.8zm4.2 1.2c3.6-4.8 9.3-7.9 15.8-7.9 6.5 0 12.3 3.2 16 8.1q-1.5 0.6-2.8 1.3c-3.1-3.8-7.9-6.3-13.2-6.3-5.2 0-9.9 2.4-13 6.1q-1.4-0.7-2.8-1.3zm3.7 1.8c2.9-3.4 7.3-5.6 12.1-5.6 4.9 0 9.4 2.3 12.3 5.8q-1.3 0.8-2.5 1.8c-2.4-2.8-5.9-4.6-9.8-4.6-3.8 0-7.2 1.7-9.5 4.3q-1.3-0.9-2.6-1.7zm3.3 2.3c2.2-2.3 5.3-3.8 8.8-3.8 3.6 0 6.8 1.6 9 4.1q-1.2 1-2.2 2.1c-1.6-1.9-4.1-3.2-6.8-3.2-2.6 0-4.9 1.1-6.5 2.9q-1.1-1.1-2.3-2.1zm14.7 2.9q-2.8-0.7-5.9-0.7-3 0-5.8 0.7c1.4-1.6 3.5-2.7 5.8-2.7 2.4 0 4.5 1.1 5.9 2.7zm3.9 16c-2.4-2.8-5.9-4.5-9.8-4.5-3.8 0-7.2 1.6-9.5 4.3q-1.3-1-2.6-1.7c2.9-3.5 7.3-5.7 12.1-5.7 4.9 0 9.4 2.3 12.3 5.9q-1.3 0.8-2.5 1.7zm3.4-2.2c-3.1-3.9-7.9-6.4-13.2-6.4-5.2 0-9.9 2.4-13 6.1q-1.4-0.7-2.8-1.2c3.6-4.8 9.3-7.9 15.8-7.9 6.5 0 12.3 3.2 16 8q-1.5 0.6-2.8 1.4zm3.7-1.7c-3.8-5.3-9.9-8.7-16.9-8.7-6.9 0-13 3.3-16.8 8.5q-1.6-0.5-3.2-0.8c4.3-6.5 11.7-10.8 20-10.8 8.4 0 15.7 4.4 20 10.9q-1.6 0.3-3.1 0.9zm12-1.2q-1.8-0.3-3.6-0.3-2.1 0-4.2 0.4-0.2-0.4-0.5-0.8c1.3-1 2.9-1.6 4.7-1.6 1.6 0 3.1 0.5 4.3 1.3q-0.4 0.5-0.7 1zm30.9 5.1c-2.4-2.8-5.9-4.5-9.8-4.5-3.8 0-7.2 1.6-9.5 4.3q-1.3-1-2.6-1.7c2.9-3.5 7.3-5.7 12.1-5.7 4.9 0 9.4 2.3 12.3 5.9q-1.3 0.8-2.5 1.7zm3.4-2.2c-3.1-3.9-7.9-6.4-13.2-6.4-5.2 0-9.9 2.4-13 6.1q-1.4-0.7-2.8-1.2c3.6-4.8 9.3-7.9 15.8-7.9 6.5 0 12.3 3.2 16 8q-1.5 0.6-2.8 1.4zm3.7-1.7c-3.8-5.3-9.9-8.7-16.9-8.7-6.9 0-13 3.3-16.8 8.5q-1.6-0.5-3.2-0.8c4.3-6.5 11.7-10.8 20-10.8 8.4 0 15.7 4.4 20 10.9q-1.6 0.3-3.1 0.9zm12-1.2q-1.8-0.3-3.6-0.3-2.1 0-4.2 0.4-0.2-0.4-0.5-0.8c1.3-1 2.9-1.6 4.7-1.6 1.6 0 3.1 0.5 4.3 1.3q-0.4 0.5-0.7 1zm30.9 5.1c-2.4-2.8-5.9-4.5-9.8-4.5-3.8 0-7.2 1.6-9.5 4.3q-1.3-1-2.6-1.7c2.9-3.5 7.3-5.7 12.1-5.7 4.9 0 9.4 2.3 12.3 5.9q-1.3 0.8-2.5 1.7zm3.4-2.2c-3.1-3.9-7.9-6.4-13.2-6.4-5.2 0-9.9 2.4-13 6.1q-1.4-0.7-2.8-1.2c3.6-4.8 9.3-7.9 15.8-7.9 6.5 0 12.3 3.2 15.9 8q-1.4 0.6-2.7 1.4zm3.7-1.7c-3.8-5.3-9.9-8.7-16.9-8.7-6.9 0-13 3.3-16.8 8.5q-1.6-0.5-3.2-0.8c4.3-6.5 11.7-10.8 20-10.8 8.4 0 15.7 4.4 20 10.9q-1.6 0.3-3.1 0.9zm12-1.2q-1.8-0.3-3.6-0.3-2.1 0-4.2 0.4-0.2-0.4-0.5-0.8c1.3-1 2.9-1.6 4.7-1.6 1.6 0 3.1 0.5 4.3 1.3q-0.4 0.5-0.7 1zm30.9 5.1c-2.4-2.8-5.9-4.5-9.8-4.5-3.8 0-7.2 1.6-9.6 4.3q-1.2-1-2.5-1.7c2.9-3.5 7.2-5.7 12.1-5.7 4.9 0 9.4 2.3 12.3 5.9q-1.3 0.8-2.5 1.7zm3.4-2.2c-3.1-3.9-7.9-6.4-13.2-6.4-5.2 0-9.9 2.4-13 6.1q-1.4-0.7-2.8-1.2c3.6-4.8 9.3-7.9 15.8-7.9 6.5 0 12.3 3.2 15.9 8q-1.4 0.6-2.7 1.4zm3.7-1.7c-3.8-5.3-9.9-8.7-16.9-8.7-6.9 0-13 3.3-16.8 8.5q-1.6-0.5-3.2-0.8c4.3-6.5 11.7-10.8 20-10.8 8.4 0 15.7 4.4 20 10.9q-1.6 0.3-3.1 0.9zm12-1.2q-1.8-0.3-3.6-0.3-2.1 0-4.2 0.4-0.2-0.4-0.5-0.8c1.3-1 2.9-1.6 4.7-1.6 1.6 0 3.1 0.5 4.3 1.3q-0.4 0.5-0.7 1zm30.9 5.1c-2.4-2.8-5.9-4.5-9.8-4.5-3.8 0-7.2 1.6-9.6 4.3q-1.2-1-2.5-1.7c2.9-3.5 7.3-5.7 12.1-5.7 4.9 0 9.4 2.3 12.3 5.9q-1.3 0.8-2.5 1.7zm3.4-2.2c-3.1-3.9-7.9-6.4-13.2-6.4-5.2 0-9.9 2.4-13 6.1q-1.4-0.7-2.8-1.2c3.6-4.8 9.3-7.9 15.8-7.9 6.5 0 12.3 3.2 15.9 8q-1.4 0.6-2.7 1.4zm3.7-1.7c-3.8-5.3-10-8.7-16.9-8.7-6.9 0-13 3.3-16.8 8.5q-1.6-0.5-3.2-0.8c4.3-6.5 11.7-10.8 20-10.8 8.4 0 15.7 4.4 20 10.9q-1.6 0.3-3.1 0.9zm12-1.2q-1.8-0.3-3.6-0.3-2.2 0-4.2 0.4-0.2-0.4-0.5-0.8c1.3-1 2.9-1.6 4.7-1.6 1.6 0 3 0.5 4.3 1.3q-0.4 0.5-0.7 1zm30.9 5.1c-2.4-2.8-5.9-4.5-9.8-4.5-3.8 0-7.2 1.6-9.6 4.3q-1.2-1-2.5-1.7c2.9-3.5 7.2-5.7 12.1-5.7 4.9 0 9.4 2.3 12.3 5.9q-1.3 0.8-2.5 1.7zm3.3-2.2c-3-3.9-7.8-6.4-13.1-6.4-5.2 0-9.9 2.4-13 6.1q-1.4-0.7-2.8-1.2c3.6-4.8 9.3-7.9 15.8-7.9 6.5 0 12.3 3.2 15.9 8q-1.4 0.6-2.8 1.4zm3.8-1.7c-3.8-5.3-10-8.7-16.9-8.7-6.9 0-13 3.3-16.8 8.5q-1.6-0.5-3.2-0.8c4.3-6.5 11.7-10.8 20-10.8 8.4 0 15.7 4.4 20 10.9q-1.6 0.3-3.1 0.9zm12-1.2q-1.8-0.3-3.6-0.3-2.2 0-4.2 0.4-0.2-0.4-0.5-0.8c1.3-1 2.9-1.6 4.7-1.6 1.6 0 3 0.5 4.3 1.3q-0.4 0.5-0.7 1zm30.9 5.1c-2.4-2.8-5.9-4.5-9.8-4.5-3.8 0-7.2 1.6-9.6 4.3q-1.2-1-2.5-1.7c2.9-3.5 7.2-5.7 12.1-5.7 4.9 0 9.4 2.3 12.3 5.9q-1.3 0.8-2.5 1.7zm3.3-2.2c-3.1-3.9-7.8-6.4-13.1-6.4-5.2 0-9.9 2.4-13 6.1q-1.4-0.7-2.8-1.2c3.6-4.8 9.3-7.9 15.8-7.9 6.5 0 12.3 3.2 15.9 8q-1.4 0.6-2.8 1.4zm3.8-1.7c-3.8-5.3-10-8.7-16.9-8.7-6.9 0-13 3.3-16.8 8.5q-1.6-0.5-3.2-0.8c4.3-6.5 11.7-10.8 20-10.8 8.3 0 15.7 4.4 20 10.9q-1.6 0.3-3.1 0.9zm12-1.2q-1.8-0.3-3.6-0.3-2.2 0-4.2 0.4-0.2-0.4-0.5-0.8c1.3-1 2.9-1.6 4.7-1.6 1.6 0 3 0.5 4.3 1.3q-0.4 0.5-0.7 1zm30.9 5.1c-2.4-2.8-5.9-4.5-9.8-4.5-3.8 0-7.2 1.6-9.6 4.3q-1.2-1-2.5-1.7c2.9-3.5 7.2-5.7 12.1-5.7 4.9 0 9.3 2.3 12.3 5.9q-1.3 0.8-2.5 1.7zm3.3-2.2c-3.1-3.9-7.8-6.4-13.1-6.4-5.2 0-9.9 2.4-13 6.1q-1.4-0.7-2.8-1.2c3.6-4.8 9.3-7.9 15.8-7.9 6.5 0 12.3 3.2 15.9 8q-1.4 0.6-2.8 1.4zm3.8-1.7c-3.8-5.3-10-8.7-16.9-8.7-6.9 0-13 3.3-16.8 8.5q-1.6-0.5-3.2-0.8c4.3-6.5 11.7-10.8 20-10.8 8.4 0 15.7 4.4 20 10.9q-1.6 0.3-3.1 0.9zm12-1.2q-1.8-0.3-3.6-0.3-2.2 0-4.2 0.4-0.3-0.4-0.5-0.8c1.3-1 2.9-1.6 4.7-1.6 1.6 0 3 0.5 4.3 1.3q-0.4 0.5-0.7 1zm30.9 5.1c-2.4-2.8-5.9-4.5-9.8-4.5-3.8 0-7.2 1.6-9.6 4.3q-1.2-1-2.5-1.7c2.9-3.5 7.2-5.7 12.1-5.7 4.9 0 9.3 2.3 12.3 5.9q-1.3 0.8-2.5 1.7zm3.3-2.2c-3.1-3.9-7.8-6.4-13.1-6.4-5.2 0-9.9 2.4-13 6.1q-1.4-0.7-2.9-1.2c3.7-4.8 9.4-7.9 15.9-7.9 6.5 0 12.3 3.2 15.9 8q-1.4 0.6-2.8 1.4zm3.8-1.7c-3.8-5.3-10-8.7-16.9-8.7-6.9 0-13 3.3-16.8 8.5q-1.6-0.5-3.2-0.8c4.3-6.5 11.6-10.8 20-10.8 8.3 0 15.7 4.4 20 10.9q-1.6 0.3-3.1 0.9zm12-1.2q-1.8-0.3-3.6-0.3-2.2 0-4.2 0.4-0.3-0.4-0.5-0.8c1.3-1 2.9-1.6 4.7-1.6 1.6 0 3 0.5 4.3 1.3q-0.4 0.5-0.7 1zm30.9 5.1c-2.4-2.8-5.9-4.5-9.8-4.5-3.8 0-7.2 1.6-9.6 4.3q-1.2-1-2.5-1.7c2.9-3.5 7.2-5.7 12.1-5.7 4.9 0 9.3 2.3 12.3 5.9q-1.4 0.8-2.5 1.7zm3.3-2.2c-3.1-3.9-7.8-6.4-13.1-6.4-5.3 0-9.9 2.4-13 6.1q-1.4-0.7-2.9-1.2c3.7-4.8 9.4-7.9 15.9-7.9 6.5 0 12.3 3.2 15.9 8q-1.4 0.6-2.8 1.4zm6.9-2.6q-1.6 0.3-3.1 0.9c-3.8-5.3-10-8.7-16.9-8.7-6.9 0-13 3.3-16.9 8.5q-1.5-0.5-3.1-0.8c4.3-6.5 11.6-10.8 20-10.8 8.3 0 15.7 4.4 20 10.9zm-25.9-11.2c1.5-1.6 3.5-2.7 5.9-2.7 2.3 0 4.5 1.1 5.9 2.7q-2.9-0.7-5.9-0.7c-2 0-4 0.2-5.9 0.7zm12.7-0.5c-1.6-1.9-4.1-3.2-6.8-3.2-2.6 0-5 1.1-6.6 2.9q-1-1.1-2.2-2.1c2.2-2.3 5.3-3.8 8.8-3.8 3.6 0 6.8 1.6 9 4.1q-1.2 1-2.2 2.1zm3-2.7c-2.4-2.8-5.9-4.6-9.8-4.6-3.8 0-7.2 1.7-9.6 4.3q-1.2-0.9-2.5-1.7c2.9-3.4 7.2-5.6 12.1-5.6 4.9 0 9.3 2.3 12.3 5.8q-1.4 0.8-2.5 1.8zm3.3-2.3c-3.1-3.8-7.8-6.3-13.1-6.3-5.3 0-9.9 2.4-13 6.1q-1.4-0.7-2.9-1.3c3.7-4.8 9.4-7.9 15.9-7.9 6.5 0 12.3 3.2 15.9 8.1q-1.4 0.6-2.8 1.3zm6.9-2.6q-1.6 0.4-3.1 0.9c-3.8-5.2-10-8.7-16.9-8.7-6.9 0-13 3.4-16.9 8.6q-1.5-0.6-3.1-0.9c4.3-6.4 11.6-10.7 20-10.7 8.3 0 15.7 4.3 20 10.8zm-25.9-11.2c1.5-1.6 3.5-2.7 5.9-2.7 2.3 0 4.5 1.1 5.9 2.8q-2.9-0.7-5.9-0.7-3 0-5.9 0.6zm12.7-0.4c-1.6-2-4.1-3.3-6.8-3.3-2.6 0-5 1.2-6.6 3q-1-1.1-2.2-2.1c2.2-2.4 5.3-3.9 8.8-3.9 3.6 0 6.8 1.6 9 4.2q-1.2 1-2.2 2.1zm3-2.8c-2.4-2.7-5.9-4.5-9.8-4.5-3.8 0-7.2 1.6-9.6 4.3q-1.2-1-2.5-1.8c2.9-3.4 7.2-5.6 12.1-5.6 4.9 0 9.3 2.3 12.3 5.9q-1.4 0.8-2.5 1.7zm3.3-2.2c-3.1-3.9-7.8-6.4-13.1-6.4-5.2 0-9.9 2.4-13 6.1q-1.4-0.7-2.9-1.2c3.7-4.8 9.4-7.9 15.9-7.9 6.5 0 12.3 3.2 15.9 8q-1.4 0.6-2.8 1.4zm6.9-2.6q-1.6 0.3-3.1 0.9c-3.8-5.3-10-8.7-16.9-8.7-6.9 0-13 3.3-16.9 8.5q-1.5-0.5-3.1-0.8c4.3-6.5 11.6-10.8 20-10.8 8.3 0 15.7 4.4 20 10.9zm-25.9-11.2c1.5-1.6 3.5-2.7 5.9-2.7 2.3 0 4.5 1.1 5.9 2.7q-2.9-0.7-5.9-0.7c-2 0-4 0.2-5.9 0.7zm12.7-0.5c-1.6-1.9-4.1-3.2-6.8-3.2-2.6 0-5 1.1-6.6 2.9q-1-1.1-2.2-2.1c2.2-2.3 5.3-3.8 8.8-3.8 3.6 0 6.8 1.6 9 4.1q-1.2 1-2.2 2.1zm3-2.7c-2.4-2.8-5.9-4.6-9.8-4.6-3.8 0-7.2 1.7-9.6 4.3q-1.2-0.9-2.5-1.7c2.9-3.4 7.2-5.6 12.1-5.6 4.9 0 9.3 2.3 12.3 5.8q-1.4 0.8-2.5 1.8zm3.3-2.3c-3.1-3.8-7.8-6.3-13.1-6.3-5.3 0-9.9 2.4-13 6.1q-1.4-0.7-2.9-1.3c3.7-4.8 9.4-7.9 15.9-7.9 6.5 0 12.3 3.2 15.9 8.1q-1.4 0.6-2.8 1.3zm6.9-2.6q-1.6 0.4-3.1 0.9c-3.8-5.2-10-8.7-16.9-8.7-6.9 0-13 3.4-16.9 8.6q-1.5-0.6-3.1-0.9c4.3-6.4 11.6-10.7 20-10.7 8.3 0 15.7 4.3 20 10.8zm-25.9-11.2c1.5-1.6 3.5-2.6 5.9-2.6 2.3 0 4.5 1 5.9 2.7q-2.9-0.7-5.9-0.7c-2 0-4 0.2-5.9 0.6zm12.7-0.4c-1.6-2-4.1-3.3-6.8-3.3-2.6 0-5 1.2-6.6 3q-1-1.1-2.2-2.1c2.2-2.4 5.3-3.9 8.8-3.9 3.6 0 6.8 1.6 9 4.2q-1.2 1-2.2 2.1zm3-2.8c-2.4-2.7-5.9-4.5-9.8-4.5-3.8 0-7.2 1.6-9.6 4.3q-1.2-1-2.5-1.7c2.9-3.5 7.2-5.6 12.1-5.6 4.9 0 9.3 2.2 12.3 5.8q-1.4 0.8-2.5 1.7zm3.3-2.2c-3.1-3.9-7.8-6.4-13.1-6.4-5.3 0-9.9 2.4-13 6.1q-1.4-0.7-2.9-1.2c3.7-4.8 9.4-7.9 15.9-7.9 6.5 0 12.3 3.2 15.9 8q-1.4 0.6-2.8 1.4zm6.9-2.6q-1.6 0.3-3.1 0.9c-3.8-5.3-10-8.7-16.9-8.7-6.9 0-13 3.4-16.9 8.5q-1.5-0.5-3.1-0.8c4.3-6.5 11.6-10.8 20-10.8 8.3 0 15.7 4.4 20 10.9z"/>
</svg>